<svg viewBox="0 0 526.24 150.95" xmlns="http://www.w3.org/2000/svg"><path d="m79.95 87.77-15 46.35-15.72-46.35h-8.27l-15.71 46.35-15.1-46.35h-10.15l20.39 61.45h9.52l15.19-44.02 15.09 44.02h4.31 5.21l20.48-61.45z"/><path d="m108.97 142.78c-7.91 0-11.95-4.85-12.85-11.23h33.15c1.8-14.29-6.92-24.98-20.93-24.98-12.84 0-21.74 9.7-21.74 22.19s8.98 22.19 22.28 22.19 20.22-8.09 22.92-15.73h-10.24c-1.71 2.69-3.95 7.56-12.59 7.56m-.54-28.3c6.56 0 11.05 3.68 11.59 10.6h-23.72c1.08-5.93 5.12-10.6 12.13-10.6"/><path d="m355.53 142.78c-7.91 0-11.95-4.85-12.85-11.23h33.15c1.8-14.29-6.92-24.98-20.93-24.98-12.84 0-21.74 9.7-21.74 22.19s8.98 22.19 22.28 22.19 20.23-8.09 22.92-15.73h-10.24c-1.71 2.69-3.95 7.56-12.59 7.56m-.54-28.3c6.56 0 11.05 3.68 11.59 10.6h-23.72c1.08-5.93 5.12-10.6 12.13-10.6"/><path d="m138.87 87.77h9.35v61.09h-9.35z"/><path d="m157.19 87.77h9.34v61.09h-9.34z"/><path d="m197.76 87.77h-22.55v61.09h22.55c18.78 0 32.43-13.03 32.43-30.9s-13.65-30.18-32.43-30.18m0 52.09h-12.85v-43.21h12.85c12.85 0 22.64 9.16 22.64 21.29s-9.79 21.92-22.64 21.92"/><path d="m257.23 105.56c-13.12 0-22.46 9.25-22.46 22.19s9.34 22.19 22.46 22.19 22.46-9.25 22.46-22.19-9.34-22.19-22.46-22.19m0 35.93c-7.64 0-13.12-5.84-13.12-13.75s5.48-13.74 13.12-13.74 13.12 5.75 13.12 13.74-5.48 13.75-13.12 13.75"/><path d="m309.58 105.56c-5.39 0-9.97 1.71-13.66 4.85v-3.77h-9.34v42.22h9.34v-28.48c3.32-4.13 7.73-6.38 11.77-6.38 6.83 0 10.96 4.13 10.96 11.86v23h9.34v-23.54c0-12.22-7.45-19.76-18.42-19.76"/><path d="m407.78 87.77h-22.55v61.09h22.55c18.78 0 32.43-13.03 32.43-30.9s-13.65-30.18-32.43-30.18m0 52.09h-12.85v-43.21h12.85c12.85 0 22.64 9.16 22.64 21.29s-9.79 21.92-22.64 21.92"/><path d="m479.68 106.64h9.25v42.22h-9.25z"/><path d="m484.26 87.77c-3.32 0-5.93 2.43-5.93 5.75s2.61 5.75 5.93 5.75 5.93-2.43 5.93-5.75-2.69-5.75-5.93-5.75"/><path d="m498.57 87.77h9.35v61.09h-9.35z"/><path d="m516.89 87.77h9.34v61.09h-9.34z"/><path d="m446.67 114.1v34.75h9.25v-33.87h17.59v-9.25h-18.47c-4.62 0-8.37 3.75-8.37 8.37"/><path d="m226.08 33.39-2.01 4.02v-4.5-32.91h-15.25l-16.68 33.39-2.01 4.02v-4.5-32.91h-14.84v65.81h15.25l16.67-33.37 2.01-4.03v4.5 32.9h15.25l16.68-33.37 2.01-4.03v4.5 32.9h14.85v-65.81h-15.25z"/><path d="m332.67 16.62v32.57l16.03-16.28z"/><path d="m316.86 32.91-16.29-16.31h32.09l-16.32-16.6h-16.39v16.6s-16.33-16.6-16.33-16.6h-16.39v65.82h16.39l16.33-16.6v16.6h16.37l16.33-16.6h-32.07l16.29-16.31zm-49 16.31 16.29-16.31-16.29-16.31h32.09v32.61h-32.09z"/></svg>