<?xml version="1.0" encoding="UTF-8"?><svg id="Calque_2" xmlns="http://www.w3.org/2000/svg" viewBox="0 0 88.77 233.88"><defs><style>.cls-1{fill:#ffd94f;}</style></defs><g id="Calque_1-2"><polygon class="cls-1" points="45.03 68.51 50.46 65.79 44.38 65.79 .01 65.79 .01 45.22 45.03 22.73 50.46 20.02 44.38 20.02 .01 20.02 .01 0 88.76 0 88.76 20.57 43.75 43.06 38.31 45.77 44.38 45.77 88.76 45.77 88.76 66.34 43.75 88.83 38.31 91.54 44.38 91.54 88.76 91.54 88.76 111.56 .01 111.56 .01 91 45.03 68.51"/><polygon class="cls-1" points="22.42 212.26 66.35 212.26 44.38 233.88 22.42 212.26"/><path class="cls-1" d="M44.38,190.94l-21.99-21.97v43.28L0,190.23v-22.11h22.39L0,146.11v-22.11h88.77v22.11l-22.39,22.02h22.38v22.08l-22.39,22.02v-43.25l-21.99,21.97ZM66.38,124.85l-21.99,21.97-21.99-21.97v43.28h43.99v-43.28Z"/></g></svg>