<?xml version="1.0" encoding="UTF-8"?><svg id="Calque_2" xmlns="http://www.w3.org/2000/svg" viewBox="0 0 526.24 150.95"><defs><style>.cls-1{fill:#fff;}</style></defs><g id="Calque_1-2"><polygon class="cls-1" points="79.95 87.77 64.95 134.12 49.23 87.77 40.96 87.77 25.25 134.12 10.15 87.77 0 87.77 20.39 149.22 29.91 149.22 45.1 105.2 60.19 149.22 64.5 149.22 69.71 149.22 90.19 87.77 79.95 87.77"/><path class="cls-1" d="M108.97,142.78c-7.91,0-11.95-4.85-12.85-11.23h33.15c1.8-14.29-6.92-24.98-20.93-24.98-12.84,0-21.74,9.7-21.74,22.19s8.98,22.19,22.28,22.19,20.22-8.09,22.92-15.73h-10.24c-1.71,2.69-3.95,7.56-12.59,7.56M108.43,114.48c6.56,0,11.05,3.68,11.59,10.6h-23.72c1.08-5.93,5.12-10.6,12.13-10.6"/><path class="cls-1" d="M355.53,142.78c-7.91,0-11.95-4.85-12.85-11.23h33.15c1.8-14.29-6.92-24.98-20.93-24.98-12.84,0-21.74,9.7-21.74,22.19s8.98,22.19,22.28,22.19,20.23-8.09,22.92-15.73h-10.24c-1.71,2.69-3.95,7.56-12.59,7.56M354.99,114.48c6.56,0,11.05,3.68,11.59,10.6h-23.72c1.08-5.93,5.12-10.6,12.13-10.6"/><rect class="cls-1" x="138.87" y="87.77" width="9.35" height="61.09"/><rect class="cls-1" x="157.19" y="87.77" width="9.34" height="61.09"/><path class="cls-1" d="M197.76,87.77h-22.55v61.09h22.55c18.78,0,32.43-13.03,32.43-30.9s-13.65-30.18-32.43-30.18M197.76,139.87h-12.85v-43.21h12.85c12.85,0,22.64,9.16,22.64,21.29s-9.79,21.92-22.64,21.92"/><path class="cls-1" d="M257.23,105.56c-13.12,0-22.46,9.25-22.46,22.19s9.34,22.19,22.46,22.19,22.46-9.25,22.46-22.19-9.34-22.19-22.46-22.19M257.23,141.49c-7.64,0-13.12-5.84-13.12-13.75s5.48-13.74,13.12-13.74,13.12,5.75,13.12,13.74-5.48,13.75-13.12,13.75"/><path class="cls-1" d="M309.58,105.56c-5.39,0-9.97,1.71-13.66,4.85v-3.77h-9.34v42.22h9.34v-28.48c3.32-4.13,7.73-6.38,11.77-6.38,6.83,0,10.96,4.13,10.96,11.86v23h9.34v-23.54c0-12.22-7.45-19.76-18.42-19.76"/><path class="cls-1" d="M407.78,87.77h-22.55v61.09h22.55c18.78,0,32.43-13.03,32.43-30.9s-13.65-30.18-32.43-30.18M407.78,139.87h-12.85v-43.21h12.85c12.85,0,22.64,9.16,22.64,21.29s-9.79,21.92-22.64,21.92"/><rect class="cls-1" x="479.68" y="106.64" width="9.25" height="42.22"/><path class="cls-1" d="M484.26,87.77c-3.32,0-5.93,2.43-5.93,5.75s2.61,5.75,5.93,5.75,5.93-2.43,5.93-5.75-2.69-5.75-5.93-5.75"/><rect class="cls-1" x="498.57" y="87.77" width="9.35" height="61.09"/><rect class="cls-1" x="516.89" y="87.77" width="9.34" height="61.09"/><path class="cls-1" d="M446.67,114.1v34.75h9.25v-33.87h17.59v-9.25h-18.47c-4.62,0-8.37,3.75-8.37,8.37"/><polygon class="cls-1" points="226.08 33.39 224.07 37.41 224.07 32.91 224.07 0 208.82 0 192.14 33.39 190.13 37.41 190.13 32.91 190.13 0 175.29 0 175.29 65.81 190.54 65.81 207.21 32.44 209.22 28.41 209.22 32.91 209.22 65.81 224.47 65.81 241.15 32.44 243.16 28.41 243.16 32.91 243.16 65.81 258.01 65.81 258.01 0 242.76 0 226.08 33.39"/><polygon class="cls-1" points="332.67 16.62 332.67 49.19 348.7 32.91 332.67 16.62"/><path class="cls-1" d="M316.86,32.91l-16.29-16.31h32.09L316.34,0h-16.39v16.6h0S283.62,0,283.62,0h-16.39v65.82h16.39l16.33-16.6v16.6h16.37l16.33-16.6h-32.07l16.29-16.31ZM267.86,49.22l16.29-16.31-16.29-16.31h32.09v32.61h-32.09Z"/></g></svg>