<svg xmlns="http://www.w3.org/2000/svg" viewBox="0 0 1000 700" style="background:#F5F2EB">
<path id="LIM" data-slug="limbourg" d="M631.4,281.6L635.7,282.2L640.9,286.1L642.5,285.2L644.4,286.0L647.6,283.1L646.4,279.8L644.8,279.5L645.3,277.2L646.3,277.7L646.8,276.9L650.4,279.2L652.8,277.7L656.7,277.8L657.4,278.8L659.3,275.9L660.2,279.1L663.6,279.6L665.2,278.8L667.6,275.1L669.7,276.7L671.8,276.9L673.3,279.4L674.7,278.3L674.2,276.8L675.4,275.0L679.6,272.9L683.0,269.4L687.2,269.3L688.4,270.8L691.3,268.8L692.3,273.2L693.8,273.0L693.9,275.4L697.7,278.4L699.3,277.0L700.2,278.7L700.9,277.3L704.6,277.7L704.8,275.7L706.6,274.6L706.4,271.9L709.2,273.6L708.9,276.1L709.9,276.9L719.4,270.7L718.4,269.1L719.0,265.4L724.3,265.3L725.4,263.6L728.8,263.5L729.7,261.3L731.1,260.6L733.5,261.6L733.6,260.4L735.8,259.4L737.4,259.9L736.6,258.6L738.5,256.9L740.8,257.6L743.3,255.9L744.9,254.0L746.4,250.0L749.5,250.2L750.5,249.2L750.7,250.0L753.5,250.4L753.6,247.8L752.1,247.8L751.6,246.3L746.9,245.4L747.0,243.8L745.5,242.9L746.0,241.2L743.4,236.1L744.2,235.3L744.0,230.7L745.6,229.3L744.5,228.3L749.8,224.9L751.8,225.3L752.5,222.6L755.3,219.6L756.0,215.3L760.9,215.9L762.0,210.5L765.3,206.3L765.9,203.3L768.3,202.2L768.3,200.7L766.7,198.9L765.5,198.7L762.0,200.8L760.7,200.1L760.4,198.4L764.2,192.8L766.6,191.8L770.3,186.1L770.1,181.9L772.1,178.4L771.4,177.0L768.6,175.9L768.4,174.5L770.9,169.8L771.8,165.3L775.6,166.8L777.0,166.2L776.3,162.4L778.1,159.8L776.2,155.9L778.8,154.3L782.1,155.7L784.0,153.4L783.1,150.8L779.3,150.2L778.8,148.0L782.3,143.5L785.4,143.0L786.5,140.0L788.7,138.5L784.6,135.5L785.1,134.4L782.8,131.4L782.0,130.9L779.9,133.8L778.1,132.5L776.8,134.1L772.4,136.3L771.8,135.2L772.7,132.3L770.8,132.0L770.7,130.4L772.8,129.5L771.4,129.0L772.2,127.4L770.2,125.6L767.8,125.4L765.7,123.7L764.4,125.3L760.3,125.3L758.1,126.7L753.9,125.1L751.2,126.0L750.4,125.0L747.4,125.3L745.6,122.4L746.5,122.2L746.3,121.0L727.0,112.9L725.9,105.7L726.1,98.5L720.3,93.4L717.6,89.0L711.7,87.5L710.8,87.4L709.5,90.2L707.0,92.5L702.2,93.3L701.5,95.3L700.4,95.2L697.1,99.8L682.2,95.4L681.4,98.6L680.2,99.6L671.7,100.1L664.8,98.3L659.4,100.2L655.0,104.8L654.7,113.5L655.2,116.5L659.7,119.9L664.2,125.6L664.4,137.7L663.4,137.7L659.0,142.4L656.4,140.3L652.6,140.1L651.5,145.0L647.8,147.2L637.3,147.4L636.3,150.4L631.3,154.3L629.7,157.9L617.1,161.8L612.2,161.6L611.6,167.2L609.2,167.6L605.6,175.1L606.5,175.9L611.8,173.2L614.5,179.5L618.9,178.0L621.5,178.8L622.0,180.9L627.3,178.2L627.0,176.7L626.4,176.9L626.4,170.4L628.4,169.6L634.2,169.7L643.1,178.0L637.0,181.1L635.7,179.5L636.7,178.8L636.4,178.0L633.9,179.7L636.0,186.7L633.7,186.5L627.3,190.4L627.4,191.3L626.3,191.7L627.3,196.7L625.6,199.5L622.1,201.1L620.8,203.9L618.5,204.9L620.5,211.3L623.1,213.5L626.1,211.9L629.0,215.9L632.0,213.7L637.5,211.8L638.1,214.3L642.6,215.0L645.3,214.4L648.4,216.3L649.1,218.2L648.6,222.5L647.3,223.4L646.8,226.6L645.3,228.0L642.2,225.6L642.1,230.6L640.8,231.9L640.9,234.2L638.5,235.9L640.0,236.9L638.2,240.2L638.7,243.5L637.1,247.0L639.7,248.8L641.1,247.8L641.7,248.6L637.5,254.3L634.4,254.2L632.1,258.6L634.3,263.5L631.6,267.9L631.1,271.1L635.2,273.0L632.4,277.3L631.4,281.6Z M752.4,265.7L754.2,267.8L760.8,269.6L763.0,266.4L765.3,266.7L766.4,269.7L770.9,267.7L777.4,272.6L777.1,274.1L779.4,276.9L779.8,279.6L781.8,280.1L789.9,278.9L794.5,281.4L800.3,273.1L799.4,270.7L797.4,270.0L796.1,268.0L795.1,261.6L790.3,263.7L787.3,267.1L786.5,263.1L783.5,265.4L779.0,266.2L775.6,261.5L773.8,262.5L772.3,257.4L771.5,257.3L769.9,257.5L765.5,262.0L764.3,265.9L762.5,265.8L760.4,263.3L759.4,264.9L756.7,265.2L756.0,266.4L752.4,265.7Z" fill="#E8E5DE" stroke="#1A1A1A" stroke-width="0.6"></path>
<path id="HAI" data-slug="hainaut" d="M229.0,266.2L231.0,271.4L233.5,273.2L231.7,276.5L235.6,278.9L234.8,280.9L235.8,280.2L237.7,281.4L239.2,280.3L243.0,280.3L244.1,282.8L246.3,284.2L246.4,287.4L244.6,288.0L247.2,292.1L242.1,294.8L241.9,298.2L243.7,301.1L242.7,304.1L245.9,307.7L245.1,310.0L248.2,313.5L249.1,318.5L250.2,318.8L249.4,323.5L250.7,325.6L249.8,329.2L251.3,330.1L249.4,331.1L250.8,333.2L249.9,333.4L250.0,337.8L252.0,341.9L258.7,344.2L260.6,347.7L267.4,349.1L270.5,353.3L273.7,350.8L274.5,351.6L281.4,348.8L283.4,346.8L283.6,347.9L285.6,348.2L286.6,344.0L290.9,339.3L294.4,341.3L297.1,340.6L300.4,342.6L299.6,346.1L297.0,348.1L295.5,350.7L296.4,354.7L301.0,351.9L304.4,352.2L310.7,350.0L314.0,353.5L318.7,351.3L323.9,356.9L324.5,359.8L326.2,362.4L328.5,362.5L330.3,364.8L330.6,366.0L329.4,368.0L331.7,371.0L331.6,375.7L332.3,375.9L332.8,382.1L332.6,386.6L329.1,393.5L331.2,396.1L330.8,400.6L333.3,402.8L332.8,405.3L336.8,408.9L335.7,410.0L340.1,415.0L342.3,414.4L341.3,413.9L341.2,411.9L340.2,411.5L340.1,409.6L342.3,410.8L342.5,412.4L344.0,413.0L344.7,412.3L343.8,411.0L344.8,409.0L344.3,406.1L345.1,406.2L345.6,404.3L345.0,403.5L346.1,402.5L345.1,401.9L346.9,400.0L347.9,400.2L347.9,399.3L351.3,400.3L352.0,398.6L358.7,399.3L360.5,397.9L361.9,398.6L361.4,401.2L362.0,401.3L363.9,400.6L364.0,398.5L368.5,398.6L370.7,400.0L370.9,402.2L372.0,401.7L374.8,403.7L377.2,402.6L377.9,406.3L376.9,407.2L379.1,406.6L380.0,407.2L394.2,399.6L393.6,402.4L395.2,400.3L397.7,402.3L399.4,400.1L404.5,398.9L404.6,397.3L405.8,396.6L407.3,398.3L408.3,401.7L410.0,403.1L412.1,403.2L412.3,405.4L414.3,406.0L417.1,409.3L417.3,412.9L421.1,411.6L423.7,415.5L425.5,415.0L427.0,419.9L426.8,424.7L429.3,424.4L428.7,427.2L429.8,428.1L429.1,430.1L433.1,430.4L435.8,429.4L436.0,427.1L434.9,425.3L432.0,424.1L433.2,422.6L433.0,421.2L434.4,421.0L434.8,419.7L436.3,420.0L436.1,421.1L437.6,421.2L437.9,424.3L444.3,425.0L447.0,429.7L446.8,432.0L443.2,435.7L441.2,435.7L438.7,438.3L437.3,442.4L436.3,442.9L436.9,443.3L432.2,444.5L432.6,446.6L434.3,448.2L433.4,454.4L431.7,457.4L433.3,458.1L433.2,461.1L429.6,464.7L429.1,467.8L427.3,470.1L430.9,472.4L433.1,472.6L433.6,470.2L437.5,470.9L442.3,470.5L442.1,472.8L443.4,476.7L441.9,479.7L444.1,480.1L442.9,481.8L447.8,486.5L449.1,491.2L446.5,494.6L442.3,496.1L441.4,498.4L437.1,499.7L434.3,498.9L429.2,507.8L429.2,510.3L431.1,511.9L430.5,512.8L431.4,512.5L431.2,513.4L433.1,514.7L434.3,514.2L434.9,516.3L433.0,519.7L431.6,520.1L430.3,521.9L432.6,523.0L436.9,522.2L438.0,523.9L441.9,525.3L442.1,529.5L447.7,528.1L449.9,528.5L451.3,527.3L457.1,526.0L461.3,526.6L465.5,524.7L467.1,526.2L470.9,526.7L474.1,530.4L478.5,530.7L480.4,529.7L482.4,531.8L487.8,531.9L491.2,533.8L494.0,529.8L487.2,515.1L487.6,511.2L485.7,502.5L486.4,499.8L485.7,498.4L484.7,498.9L484.4,497.9L483.0,499.0L482.2,497.9L483.5,495.5L482.3,492.6L483.2,488.0L481.4,478.8L484.5,474.3L481.1,470.0L482.0,467.5L481.2,465.2L479.4,464.5L479.4,463.1L477.2,463.1L476.3,458.5L482.8,455.3L483.9,453.5L482.2,448.8L483.1,447.6L482.5,445.3L484.2,444.4L483.2,442.0L484.6,438.1L482.1,437.7L481.7,436.0L480.0,436.2L477.5,434.7L472.9,439.9L465.4,436.4L465.2,435.2L463.2,434.6L462.0,432.5L460.5,432.6L461.3,431.3L460.7,430.6L462.6,428.2L464.4,428.0L465.5,425.9L467.3,426.6L466.8,425.0L469.1,425.1L469.4,423.4L471.4,423.6L471.3,424.3L472.1,423.1L474.2,423.2L475.6,424.3L476.5,421.6L477.9,421.0L478.0,418.7L481.6,419.4L484.2,417.0L485.4,414.5L484.8,412.4L488.5,414.3L491.0,412.7L496.3,414.5L498.2,412.7L497.7,411.6L500.0,407.0L506.2,406.5L506.9,407.8L506.4,409.0L509.0,410.0L509.5,411.2L519.0,408.6L524.2,408.9L524.9,403.0L522.5,402.4L523.8,399.7L522.4,397.0L525.0,392.2L524.5,389.9L527.5,388.6L527.3,387.5L522.9,384.0L527.0,382.3L528.4,376.0L529.8,374.9L529.0,373.2L527.3,374.6L525.1,373.7L524.3,372.4L522.6,372.7L522.8,370.6L521.2,370.5L520.5,369.4L522.4,369.4L522.9,368.2L520.6,365.4L523.0,365.3L523.9,364.3L523.5,362.5L526.3,358.0L523.6,353.7L524.2,353.3L523.3,352.4L524.9,350.5L523.1,351.7L521.8,350.5L518.2,353.9L517.7,352.6L518.6,351.1L517.3,348.5L518.5,347.6L519.0,343.9L520.7,343.4L522.1,340.4L521.5,336.4L507.9,342.0L505.8,341.0L506.0,337.3L503.3,337.9L502.0,339.3L499.9,338.5L498.5,341.2L497.6,339.6L498.5,337.9L498.2,335.1L500.5,333.6L499.1,331.0L494.9,332.6L493.5,330.6L488.9,331.1L488.0,329.1L486.8,329.1L484.4,329.9L480.7,329.3L479.6,330.9L475.8,329.7L475.4,331.9L472.2,333.1L472.8,334.3L470.0,336.1L468.7,334.1L470.8,332.2L469.9,330.5L470.7,327.7L464.0,328.1L463.3,325.0L458.2,319.8L458.3,318.8L455.3,319.8L452.4,318.7L453.4,317.1L452.1,313.4L453.8,312.2L451.9,310.6L449.1,309.4L442.4,309.4L442.0,306.0L443.5,302.0L438.9,297.1L437.3,297.2L430.2,307.0L428.5,307.8L425.1,306.0L423.0,306.9L419.9,299.9L420.4,299.2L421.2,300.3L421.7,296.8L419.8,294.7L421.1,292.5L421.6,287.1L420.0,284.3L421.2,283.4L421.8,284.0L422.9,282.8L424.4,282.9L424.0,281.4L421.5,282.8L419.7,282.3L418.8,280.2L415.8,280.7L413.0,286.4L411.6,284.0L407.4,286.6L404.3,286.6L402.8,284.8L398.2,288.7L394.7,287.7L386.4,288.1L385.7,286.1L382.4,287.5L382.7,285.0L380.6,282.8L380.2,281.1L379.3,281.6L377.6,280.8L379.2,275.0L378.3,273.1L379.7,272.4L376.9,268.3L375.6,267.7L372.8,268.9L370.9,267.7L371.1,269.0L370.0,268.6L367.0,271.0L362.9,269.9L362.2,267.9L353.9,268.9L353.3,266.8L349.2,261.1L350.3,258.2L348.2,260.2L346.8,260.0L346.0,261.5L341.4,262.3L340.5,261.4L341.1,260.6L339.9,260.1L340.8,258.2L340.2,257.7L337.4,260.5L333.5,260.9L333.3,262.6L331.7,263.6L332.3,265.4L329.7,266.7L329.5,269.2L326.0,272.2L325.6,277.3L323.6,277.7L321.4,276.7L319.3,274.0L310.5,275.4L308.6,273.4L305.0,273.8L306.2,269.1L304.3,265.7L304.1,263.4L294.6,265.6L291.6,265.1L292.3,264.4L291.7,263.9L291.0,264.6L289.3,263.3L287.8,264.3L286.9,261.2L286.5,263.1L287.3,263.7L286.6,265.5L283.4,265.3L283.0,266.8L282.0,266.0L282.6,268.3L280.9,269.2L276.5,269.4L275.2,273.9L273.8,274.2L274.2,274.9L268.8,276.1L267.1,281.5L259.4,277.2L260.5,274.5L255.6,266.6L253.0,268.3L250.9,267.5L247.1,268.0L243.6,265.7L242.0,266.1L239.3,263.2L237.8,263.0L231.6,266.3L230.5,265.5L229.0,266.2Z M163.1,281.9L164.5,283.5L166.5,283.7L167.7,282.5L170.5,286.6L172.9,286.7L172.6,284.0L173.3,283.3L175.5,283.7L177.1,281.1L177.5,275.2L180.2,274.1L178.7,271.8L178.9,269.7L182.4,267.0L183.7,267.2L184.0,268.2L186.1,268.0L197.9,258.6L194.4,257.0L194.8,255.0L193.5,253.3L194.9,250.9L194.1,249.3L191.7,248.2L184.4,251.2L183.3,252.5L178.6,253.8L180.6,254.7L182.9,257.6L183.3,260.5L180.2,260.9L174.7,263.6L175.4,265.9L169.5,267.3L166.3,264.4L166.1,266.8L164.6,266.7L164.5,264.9L161.4,265.7L158.7,267.7L160.9,271.3L158.7,272.9L164.5,280.4L163.1,281.9Z" fill="#C8B89A" stroke="#1A1A1A" stroke-width="0.6"></path>
<path id="OV" data-slug="flandre-orientale" d="M287.7,263.4L287.8,264.3L289.3,263.3L291.0,264.6L291.7,263.9L292.2,265.3L295.6,265.7L304.1,263.4L304.3,265.7L306.2,269.1L305.0,273.8L308.6,273.4L310.5,275.4L319.3,274.0L321.4,276.7L323.6,277.7L325.6,277.3L326.0,272.2L329.5,269.2L329.7,266.7L332.3,265.4L331.7,263.6L333.3,262.6L333.5,260.9L337.4,260.5L340.2,257.7L340.8,258.2L339.9,260.1L341.1,260.6L340.5,261.4L341.4,262.3L346.0,261.5L346.8,260.0L348.2,260.2L350.3,258.2L349.2,261.1L353.3,266.8L353.9,268.9L362.2,267.9L362.9,269.9L367.0,271.0L370.0,268.6L371.1,269.0L370.9,267.7L372.8,268.9L375.6,267.7L379.7,272.4L378.6,273.6L381.1,275.1L382.6,273.8L384.0,275.6L386.9,274.5L389.0,275.1L390.8,273.7L391.2,272.3L389.9,271.5L389.3,268.3L386.8,269.4L386.3,265.4L388.6,260.7L390.3,259.3L392.4,258.4L393.1,259.7L394.9,259.8L394.2,262.6L397.8,262.9L400.7,258.6L403.9,261.2L406.2,257.7L408.5,259.2L409.2,257.4L411.1,256.3L411.9,257.0L414.9,251.6L416.5,245.4L415.2,243.6L415.0,240.4L410.9,241.1L409.3,239.4L413.0,235.9L412.8,234.0L415.1,228.9L417.5,228.3L418.5,226.6L418.0,226.1L419.5,222.3L418.0,221.8L416.3,219.1L421.9,215.6L420.0,213.6L419.4,210.2L420.8,208.2L425.7,210.3L426.4,211.5L429.5,212.2L429.7,213.2L430.8,210.8L432.7,211.3L432.7,209.3L433.8,209.5L434.7,208.3L432.8,206.1L434.7,204.8L434.0,204.0L434.9,202.9L433.8,202.9L430.6,197.4L432.0,194.2L432.5,194.7L433.6,193.2L433.5,190.3L436.4,189.7L439.9,191.9L443.3,191.4L444.3,190.1L447.2,189.4L446.8,188.7L449.9,185.0L449.5,183.4L447.0,181.4L450.6,179.4L450.8,172.5L449.4,171.8L445.4,175.6L441.7,172.8L440.5,173.0L439.9,170.7L442.4,167.8L439.7,166.0L440.4,159.8L439.6,158.2L437.0,156.8L437.3,153.2L441.7,150.1L445.3,146.0L452.8,148.1L458.4,145.7L465.1,144.9L467.7,143.5L468.8,141.9L469.7,136.8L469.7,125.0L472.0,121.3L475.5,119.6L472.8,115.1L473.6,114.4L472.1,110.4L471.4,110.5L474.4,107.1L469.9,103.8L463.8,101.3L463.6,99.8L467.0,94.8L467.6,92.1L465.1,89.7L459.6,86.8L457.4,77.0L451.4,69.7L435.5,89.7L413.7,105.6L409.2,106.7L408.4,105.3L405.9,106.6L405.1,105.4L403.8,105.5L397.9,109.1L396.4,111.9L393.4,112.4L392.0,115.1L387.4,116.4L386.0,113.6L383.2,115.5L383.8,117.7L377.0,120.2L375.2,117.6L377.8,115.6L378.5,114.1L377.5,112.7L371.4,116.7L366.5,115.8L364.2,117.3L360.2,115.9L360.0,117.0L359.2,116.8L357.1,115.7L356.7,105.2L358.0,101.9L353.5,99.3L352.5,100.6L349.0,97.2L342.9,96.2L342.0,96.8L336.7,95.3L335.9,93.8L333.4,93.8L329.3,90.6L325.7,91.3L321.6,89.8L315.1,85.5L313.2,88.0L314.6,89.7L313.7,90.0L313.3,91.7L309.3,88.8L307.9,90.7L305.3,90.3L304.2,92.8L303.3,92.8L302.3,91.1L299.5,91.6L302.0,105.1L285.5,106.6L281.1,105.6L280.5,102.5L278.9,100.6L276.7,101.4L272.6,96.1L271.4,95.8L274.7,104.1L275.2,108.0L268.4,111.3L269.2,113.4L270.5,113.3L272.3,119.2L270.7,121.3L268.0,121.4L268.2,122.5L267.1,122.9L268.1,124.6L270.0,123.4L272.5,124.4L272.7,126.5L276.7,133.5L277.6,133.5L275.5,136.3L276.5,137.7L273.2,143.0L271.1,144.0L271.5,145.2L270.4,147.2L265.9,149.1L264.9,151.0L261.0,153.5L266.9,157.4L269.6,158.2L273.6,162.2L274.0,163.7L279.4,165.5L279.5,167.8L282.6,168.2L285.0,170.5L283.0,173.2L280.1,173.3L286.3,183.8L284.7,186.4L285.9,187.7L282.3,189.7L282.4,191.0L280.8,192.1L282.1,195.6L284.1,196.0L284.6,197.0L278.1,199.7L279.9,202.8L280.7,202.3L282.0,203.4L284.6,201.8L286.3,203.2L286.6,202.6L288.1,204.9L286.8,205.4L285.1,204.4L283.3,205.2L284.3,206.7L287.0,206.6L287.0,208.1L285.9,209.4L282.4,207.9L280.4,209.0L282.4,212.9L281.1,213.6L281.0,215.0L279.4,215.3L278.5,217.4L281.9,219.9L284.8,218.7L286.5,216.4L287.9,216.4L291.3,220.3L290.1,222.4L291.0,224.5L289.9,226.5L288.8,227.3L287.3,226.7L287.1,229.3L286.1,229.5L288.9,231.7L289.7,234.1L292.1,232.8L293.1,233.3L294.9,236.8L296.9,238.2L296.0,238.6L296.6,239.7L298.7,240.3L298.9,241.7L296.2,242.5L296.0,243.7L297.7,243.8L298.1,246.9L301.1,250.0L299.7,253.0L295.4,254.7L287.7,263.4Z" fill="#E8E5DE" stroke="#1A1A1A" stroke-width="0.6"></path>
<path id="LIE" data-slug="liege" d="M606.3,303.6L607.7,305.4L606.0,306.1L607.3,309.0L605.5,311.4L609.9,314.1L610.4,315.2L609.6,317.4L615.8,321.2L615.6,322.6L617.0,323.3L616.1,324.2L616.8,327.1L620.0,330.3L619.1,331.4L620.5,332.2L619.5,333.7L621.2,336.8L617.8,338.1L617.0,339.9L629.1,340.7L629.7,341.6L628.6,341.9L630.1,343.9L629.6,345.4L630.9,346.2L631.0,347.6L633.4,348.1L633.9,349.1L639.5,346.4L640.0,347.5L639.2,348.5L636.8,349.5L637.7,353.8L640.5,354.8L642.7,353.8L643.2,354.6L641.0,356.1L644.1,361.0L645.8,360.4L647.3,358.2L651.4,357.3L656.8,369.3L657.9,368.7L659.2,370.6L658.4,373.0L659.4,374.3L656.0,377.5L659.4,382.2L662.9,383.1L664.2,382.1L667.2,383.5L667.5,385.1L668.4,384.4L669.9,385.0L668.2,386.7L668.6,390.4L671.9,394.7L683.3,387.0L685.6,388.2L685.4,389.4L687.4,389.7L689.8,387.5L692.3,389.8L692.5,388.6L699.6,382.3L698.1,379.1L695.6,379.5L694.7,378.7L694.8,374.8L697.5,373.3L699.6,373.3L702.1,376.4L704.6,376.2L704.0,377.4L705.8,379.1L705.0,379.7L707.5,380.7L709.4,378.6L717.0,374.9L717.5,376.5L716.3,378.4L718.3,379.9L718.5,382.3L721.3,381.8L721.9,382.5L720.4,384.1L721.9,385.8L725.6,387.0L728.8,384.3L732.5,383.4L733.9,383.8L738.2,389.0L742.8,391.1L741.6,392.4L744.8,394.4L751.0,393.6L750.1,395.1L750.5,397.6L755.4,397.3L757.5,396.0L758.5,397.1L760.4,397.0L760.2,398.9L758.4,400.4L759.2,400.7L758.2,402.1L759.0,405.2L758.0,406.4L756.7,406.4L757.5,409.7L760.8,415.5L761.8,414.8L766.3,415.7L766.1,417.6L763.5,419.8L762.7,424.2L759.8,427.0L760.6,428.5L765.5,429.0L766.8,427.2L769.4,426.6L773.2,428.3L777.0,427.6L778.7,431.1L779.1,427.8L782.8,427.1L785.5,428.7L789.8,426.5L791.8,426.5L792.5,423.8L794.0,423.1L790.7,421.8L786.5,422.4L786.7,419.9L789.4,417.5L788.5,416.1L790.3,414.7L791.5,411.4L791.5,409.7L790.1,407.8L787.6,407.3L787.8,404.5L790.0,400.2L794.8,403.0L798.2,403.1L802.4,405.2L803.9,405.4L805.8,403.5L809.3,404.8L810.7,407.1L814.7,406.3L815.4,409.4L821.2,411.7L822.5,416.0L821.3,425.9L822.3,431.6L820.7,436.4L822.0,444.2L821.4,447.0L823.2,447.1L824.5,445.7L826.1,447.0L823.1,451.7L825.0,460.1L827.0,462.1L832.3,464.3L833.9,463.0L835.3,463.2L835.4,458.5L840.3,458.6L843.9,461.0L842.9,463.5L845.0,465.5L843.5,466.3L842.3,470.0L844.0,469.9L846.2,472.0L847.7,472.0L847.9,470.3L849.6,470.1L851.2,468.1L850.9,465.3L849.9,464.8L848.2,466.0L846.4,464.2L848.7,463.5L849.7,461.9L848.0,459.4L849.7,458.7L849.0,457.7L849.6,456.3L852.4,458.3L853.0,456.0L857.4,456.1L859.1,454.8L857.7,454.2L858.6,453.0L857.3,451.3L858.3,447.2L857.3,446.7L856.1,443.5L853.7,442.5L854.0,440.9L855.9,440.1L855.6,437.3L859.9,436.6L861.8,432.1L864.0,430.2L864.5,431.0L865.6,429.7L868.2,428.4L870.2,428.6L873.0,426.7L873.6,427.6L875.8,426.7L877.0,427.1L879.7,423.8L878.5,421.3L879.2,419.2L878.6,418.1L881.2,415.3L880.8,413.1L883.4,412.5L882.9,409.5L885.1,409.0L885.3,409.8L887.3,408.0L888.5,408.4L888.8,410.7L890.2,410.0L890.1,410.9L891.6,411.1L894.7,414.3L893.8,412.9L894.4,411.2L896.3,412.0L898.8,408.8L903.6,408.4L904.2,404.4L902.5,403.4L902.4,401.4L898.9,398.2L895.8,397.0L896.2,396.0L894.3,392.6L890.6,389.9L896.0,380.9L895.6,376.6L897.8,370.5L896.6,365.0L894.7,365.5L890.0,362.7L890.7,360.6L889.4,358.7L890.3,355.8L892.3,354.2L888.8,353.9L883.5,349.9L881.1,351.2L875.2,348.8L873.5,350.8L872.1,350.5L871.5,349.2L865.8,352.0L864.8,348.6L862.6,345.5L863.3,345.2L862.1,342.5L860.1,340.3L860.5,337.0L862.3,335.0L862.8,332.6L864.0,331.8L865.8,332.3L866.4,330.1L868.2,328.5L869.1,322.0L871.0,317.9L870.7,316.2L873.6,313.7L876.2,307.7L874.6,303.8L873.5,303.2L870.0,304.0L867.0,301.3L865.1,304.1L857.9,304.2L857.3,302.0L859.8,298.7L859.6,296.9L858.2,296.2L853.5,297.1L852.7,293.9L849.0,290.7L848.9,288.3L844.7,282.4L843.6,278.0L842.0,276.9L839.4,277.0L838.7,278.0L838.0,277.1L834.2,277.7L828.2,275.3L827.2,278.6L825.8,274.4L827.2,272.3L827.3,269.7L825.1,268.2L824.6,268.8L824.9,268.1L823.0,266.7L815.3,267.3L813.5,266.5L813.2,265.0L810.3,264.1L804.4,265.9L801.3,268.0L800.6,266.3L799.0,266.5L798.3,267.7L796.3,266.5L797.0,269.6L799.4,270.7L800.3,273.1L794.5,281.4L789.9,278.9L781.2,280.0L779.8,279.6L779.4,276.9L777.1,274.1L777.4,272.6L770.9,267.7L766.4,269.7L765.3,266.7L763.0,266.4L760.8,269.6L754.2,267.8L752.6,266.6L752.6,264.5L755.9,258.4L754.4,247.8L753.6,247.8L753.5,250.4L750.7,250.0L750.5,249.2L749.5,250.2L746.4,250.0L744.9,254.0L743.3,255.9L740.8,257.6L738.5,256.9L736.6,258.6L737.4,259.9L735.8,259.4L733.6,260.4L733.5,261.6L731.1,260.6L729.7,261.3L728.8,263.5L725.4,263.6L724.3,265.3L719.0,265.4L718.4,269.1L719.4,270.7L712.3,275.6L709.9,276.9L708.9,276.1L709.2,273.6L706.4,271.9L706.6,274.6L704.8,275.7L704.9,277.5L700.9,277.3L700.2,278.7L699.3,277.0L697.7,278.4L693.9,275.4L693.8,273.0L692.3,273.2L691.3,268.8L688.4,270.8L687.2,269.3L683.0,269.4L679.6,272.9L675.4,275.0L674.2,276.8L674.7,278.3L673.3,279.4L671.8,276.9L669.7,276.7L667.6,275.1L665.2,278.8L663.6,279.6L660.2,279.1L659.3,275.9L657.4,278.8L656.7,277.8L652.8,277.7L650.4,279.2L646.8,276.9L646.3,277.7L645.3,277.2L644.8,279.5L646.4,279.8L647.6,283.1L644.4,286.0L642.5,285.2L640.9,286.1L634.8,281.9L631.4,281.6L629.8,283.5L625.6,281.6L624.5,282.5L623.5,279.8L621.6,279.4L619.0,276.9L619.6,274.3L618.7,273.4L619.9,271.8L613.9,267.9L613.3,273.8L612.5,274.5L611.6,273.7L611.4,275.1L609.3,275.4L608.2,276.8L609.2,277.6L608.6,278.8L611.9,280.8L611.8,282.2L613.4,283.8L610.0,286.7L609.1,294.2L610.4,296.1L607.8,298.8L607.3,302.5L606.3,303.6Z M858.0,329.2L861.3,327.6L862.0,325.3L864.8,323.5L866.0,320.6L869.2,321.7L868.1,328.5L866.4,329.9L866.0,332.1L862.9,332.3L860.0,338.5L856.1,336.7L856.2,332.6L855.4,331.3L858.0,329.2Z M860.3,343.3L859.0,343.5L858.0,341.8L859.0,340.2L859.9,340.1L862.0,342.8L860.3,343.3Z M868.1,308.8L864.3,306.9L860.6,307.1L859.5,306.3L856.9,309.7L855.6,308.5L857.2,306.9L853.7,303.1L857.2,302.0L858.4,304.4L864.7,304.3L867.2,301.4L870.0,304.1L874.1,303.4L876.1,307.6L875.2,309.1L873.4,308.1L868.1,308.8Z M856.7,300.0L853.6,297.1L859.3,296.6L859.6,298.8L857.3,301.5L856.7,300.0Z" fill="#C8B89A" stroke="#1A1A1A" stroke-width="0.6"></path>
<path id="LUX" data-slug="luxembourg" d="M603.3,579.9L609.2,580.4L609.2,582.1L611.3,584.6L611.6,586.3L617.6,589.6L622.7,591.1L623.0,592.8L624.8,593.2L627.7,592.4L628.1,591.5L629.4,592.3L634.6,600.6L636.0,604.5L636.1,609.2L639.2,608.8L640.0,610.1L642.0,607.1L644.5,609.4L644.2,615.4L649.8,614.9L650.8,615.9L652.8,614.5L655.4,617.3L658.2,616.0L660.6,616.8L660.5,618.1L663.4,615.2L665.9,614.4L668.3,616.5L669.5,618.9L674.4,622.5L679.3,628.4L676.3,630.9L673.6,636.2L675.1,642.3L677.9,640.8L681.0,640.7L681.8,636.7L683.4,636.0L685.9,638.5L688.3,638.4L695.8,643.4L697.2,646.2L699.8,648.2L701.3,656.0L705.4,657.0L703.4,661.1L702.1,661.8L707.1,666.2L707.4,670.5L706.1,670.5L703.4,673.2L707.2,676.1L707.0,679.4L708.9,679.9L711.0,676.6L714.3,676.8L722.9,674.0L723.9,671.2L726.1,669.4L727.6,670.6L729.2,669.8L732.9,671.9L733.4,671.5L735.7,674.0L736.1,676.1L737.6,677.0L739.7,672.5L738.5,670.1L739.4,668.3L742.1,665.9L742.3,664.4L744.3,663.6L744.2,662.5L747.9,661.5L749.7,663.1L752.4,663.2L752.2,664.1L754.2,663.8L756.7,666.1L760.1,666.1L761.2,664.5L762.8,664.3L764.2,666.3L768.2,664.9L767.8,660.5L768.7,658.7L771.7,658.2L775.4,662.0L778.7,662.3L780.9,663.7L782.5,661.8L782.9,662.6L785.8,661.6L786.7,660.5L786.2,659.1L792.3,654.6L792.1,652.8L790.8,652.5L792.3,651.7L792.0,650.1L787.5,650.4L787.0,647.5L793.0,643.4L792.9,639.6L795.1,637.2L794.6,635.3L796.3,634.2L797.7,634.8L799.6,633.3L798.4,629.1L799.0,626.1L800.2,625.6L799.7,624.6L798.3,624.9L798.4,623.7L797.9,624.5L796.9,623.6L796.4,624.4L795.8,623.0L795.1,623.8L794.3,622.6L790.7,621.1L790.0,619.5L790.8,615.6L795.2,610.2L792.7,608.0L792.8,606.1L791.8,606.2L790.6,604.4L786.4,606.3L784.3,605.2L782.5,605.5L782.4,602.7L783.8,597.8L780.8,595.5L780.4,592.8L779.0,591.8L778.6,589.5L775.4,584.7L775.0,581.8L774.0,581.7L773.2,582.9L772.1,582.2L767.7,583.2L767.2,582.6L766.8,575.5L765.2,573.5L766.2,572.3L764.5,568.4L766.7,567.3L766.4,565.0L767.4,565.7L768.3,565.1L767.7,563.5L765.7,562.8L768.8,561.8L767.5,560.1L767.7,556.5L769.7,557.6L771.0,556.6L771.7,558.3L772.4,556.7L773.7,556.5L772.4,555.5L773.4,555.5L773.6,554.6L770.9,551.9L763.6,548.6L764.5,546.2L769.5,542.4L768.8,541.8L769.5,537.3L771.0,537.1L770.9,535.5L771.9,535.1L770.9,531.2L772.3,528.6L771.8,527.6L775.2,527.2L776.2,525.9L778.4,527.1L779.6,523.8L783.4,522.6L785.1,520.5L785.5,518.2L783.8,517.8L781.6,515.0L781.0,510.5L786.2,508.3L788.0,507.1L788.2,505.6L789.6,505.2L788.8,502.8L791.7,499.6L788.4,495.3L789.7,491.9L795.2,488.8L795.1,484.8L796.8,481.5L797.0,477.8L800.9,474.6L810.8,471.5L810.1,464.9L812.0,463.6L810.9,461.8L811.3,457.9L819.3,456.8L824.3,454.4L823.2,451.0L825.8,448.5L826.1,447.0L824.5,445.7L823.2,447.1L821.4,446.4L822.0,444.2L820.7,436.4L822.3,431.6L821.3,425.9L822.5,416.0L821.2,411.7L815.4,409.4L814.7,406.3L810.7,407.1L809.3,404.8L805.8,403.5L803.9,405.4L802.4,405.2L798.2,403.1L794.8,403.0L790.0,400.2L787.8,404.5L787.6,407.3L790.1,407.8L791.5,409.7L791.5,411.4L790.3,414.7L788.5,416.1L789.4,417.5L786.7,419.9L786.5,422.4L790.7,421.8L794.0,422.6L792.5,423.8L791.8,426.5L789.8,426.5L785.2,428.8L782.8,427.1L779.1,427.8L778.7,431.1L777.0,427.6L773.2,428.3L769.4,426.6L766.8,427.2L765.5,429.0L761.1,428.9L759.8,427.0L762.7,424.2L763.5,419.8L766.1,417.6L766.3,415.7L761.8,414.8L760.8,415.5L757.5,409.7L756.7,406.4L758.0,406.4L759.0,405.2L758.2,402.1L759.2,400.7L758.4,400.4L760.2,398.9L760.4,397.0L758.5,397.1L757.5,396.0L755.4,397.3L750.5,397.6L750.1,395.1L751.0,393.6L744.8,394.4L741.6,392.4L742.8,391.1L738.2,389.0L733.9,383.8L732.5,383.4L728.8,384.3L725.6,387.0L721.9,385.8L720.4,384.1L721.9,382.5L721.3,381.8L718.5,382.3L718.3,379.9L716.3,378.4L717.5,376.5L717.0,374.9L709.4,378.6L707.5,380.7L705.0,379.7L705.8,379.1L704.0,377.4L704.6,376.2L702.1,376.4L699.6,373.3L697.5,373.3L694.8,374.8L694.8,379.2L698.1,379.1L699.6,382.3L692.0,390.0L693.7,391.9L692.9,393.3L694.0,393.9L689.5,399.0L690.5,401.6L692.6,402.6L692.6,404.4L688.6,407.3L683.1,409.2L681.2,412.3L682.4,414.4L685.5,410.3L689.6,411.5L691.0,410.8L692.1,416.1L691.1,416.6L692.5,418.0L692.3,420.3L688.6,423.2L684.8,424.3L679.0,431.1L675.3,434.0L671.3,436.1L669.0,432.8L666.9,435.0L662.5,436.4L664.2,438.3L663.9,439.9L658.9,441.8L657.6,439.8L653.1,443.3L658.3,444.1L661.2,447.6L658.9,450.3L660.4,451.4L661.5,450.3L661.9,451.8L660.6,453.1L665.6,459.4L665.7,461.1L666.7,462.3L668.2,462.3L667.3,463.3L668.9,463.8L669.1,465.8L667.0,466.8L666.7,468.3L665.5,467.8L660.5,470.6L661.5,472.9L662.9,472.5L664.7,475.1L665.9,475.4L666.1,477.9L664.9,479.0L659.2,478.5L657.2,479.3L657.2,481.1L651.7,482.9L651.2,481.8L649.2,482.5L649.2,481.5L642.9,481.7L641.7,483.6L638.3,483.6L637.5,482.2L635.6,481.9L624.8,483.9L622.4,479.3L624.1,476.1L623.5,474.3L620.8,485.7L620.9,487.5L622.5,488.3L622.5,489.1L622.0,490.0L620.1,489.1L621.2,490.6L621.0,492.7L619.5,494.6L618.6,494.4L618.5,497.2L615.8,498.3L615.5,499.8L612.1,502.2L609.3,499.8L608.5,504.3L607.3,505.7L605.5,504.6L604.2,505.3L609.2,509.9L608.9,512.6L612.5,515.5L611.3,518.2L611.6,520.8L615.3,522.0L618.8,520.8L620.2,519.0L620.9,520.1L622.4,519.8L623.8,520.6L623.6,522.7L624.9,524.3L629.0,527.4L631.0,527.6L631.3,532.2L630.4,535.3L633.2,539.7L634.8,540.1L633.4,541.0L630.4,540.8L627.5,542.9L624.9,543.4L623.3,547.1L621.8,548.4L619.6,548.3L618.7,550.1L619.9,551.4L622.9,552.0L622.0,553.1L617.6,556.4L614.1,556.4L615.3,557.1L614.8,559.2L612.5,561.3L607.6,563.0L607.4,564.8L605.9,566.3L606.8,567.8L606.6,571.8L607.8,572.4L607.3,573.7L605.0,573.8L605.9,575.0L603.4,576.9L603.3,579.9Z" fill="#C8B89A" stroke="#1A1A1A" stroke-width="0.6"></path>
<path id="BW" data-slug="brabant-wallon" d="M421.8,282.7L424.0,281.4L424.4,282.9L422.9,282.8L421.8,284.0L421.2,283.4L420.0,284.3L421.6,287.1L421.1,292.5L419.8,294.7L421.7,296.8L421.2,300.3L420.4,299.2L419.9,299.9L423.1,307.0L425.1,306.0L428.5,307.8L430.4,306.9L437.8,296.6L443.5,302.0L442.0,306.0L442.4,309.4L449.1,309.4L451.9,310.6L453.8,312.2L452.1,313.4L453.4,317.1L452.4,318.7L455.3,319.8L458.3,318.8L458.2,319.8L463.3,325.0L464.0,328.1L470.7,327.7L469.9,330.5L470.8,332.2L468.7,334.1L470.0,336.1L472.8,334.3L472.2,333.1L475.4,331.9L475.8,329.7L479.6,330.9L480.7,329.3L484.4,329.9L488.0,329.1L488.9,331.1L493.5,330.6L494.9,332.6L499.1,331.0L500.5,333.6L498.2,335.1L498.5,337.9L497.6,339.6L498.5,341.2L499.9,338.5L502.0,339.3L503.3,337.9L506.0,337.3L505.8,341.0L507.9,342.0L521.5,336.4L521.0,330.3L523.9,329.8L526.6,327.6L528.5,328.2L529.9,327.5L530.7,330.1L533.2,328.6L534.1,329.8L534.9,329.0L535.6,330.5L540.5,328.7L541.5,327.0L539.2,325.2L537.9,317.5L538.8,316.0L541.4,314.8L542.6,316.5L546.5,317.8L548.1,319.4L549.6,318.7L548.6,316.2L550.1,314.7L554.3,314.0L556.6,317.1L555.7,318.1L556.9,319.9L556.4,321.1L560.9,317.6L563.8,317.1L565.3,318.1L566.3,320.9L567.4,320.1L565.4,318.0L565.4,316.8L567.9,316.0L568.1,316.7L571.6,314.4L576.3,314.2L581.1,311.6L589.0,310.1L588.9,308.0L592.0,309.0L595.0,308.5L597.5,305.6L597.5,303.2L599.5,302.1L600.8,302.7L602.5,301.6L605.4,304.5L607.3,302.5L607.8,298.8L610.4,296.1L609.1,294.2L610.0,286.7L613.4,283.8L611.8,282.2L611.9,280.8L608.6,278.8L609.2,277.6L608.2,276.8L609.3,275.4L611.4,275.1L611.6,273.7L612.5,274.5L613.3,273.8L614.1,268.6L610.8,263.2L606.0,261.7L605.4,262.9L603.2,262.5L603.4,264.1L600.1,266.6L600.2,267.9L595.1,269.0L594.2,270.6L592.3,268.5L590.2,268.3L591.2,266.3L589.4,264.7L590.6,261.8L589.1,262.1L588.7,260.8L585.9,264.0L584.1,262.6L580.7,263.6L577.7,262.3L575.4,264.0L574.5,261.4L576.1,260.7L575.4,259.6L574.4,260.2L573.9,259.2L570.6,259.6L569.5,256.0L566.0,252.2L561.0,250.4L560.1,250.9L559.7,249.5L557.3,249.4L554.6,251.7L552.6,250.7L552.1,251.4L552.9,252.5L550.3,255.4L549.3,253.0L547.8,254.9L545.4,255.5L544.1,253.4L542.5,254.0L541.7,253.2L541.6,254.3L540.2,254.4L535.0,252.1L535.9,256.3L533.8,260.8L536.1,265.2L537.8,265.7L535.3,269.5L533.4,270.6L530.3,270.1L527.3,271.1L525.8,269.6L526.4,266.4L525.4,263.7L521.7,266.0L522.2,266.8L521.1,269.1L519.0,268.7L518.2,270.1L517.1,268.6L512.5,271.7L511.5,271.2L510.5,272.0L511.9,274.3L510.3,275.6L508.3,275.0L507.3,273.0L505.4,272.0L505.6,270.2L504.3,271.3L503.6,270.4L505.6,266.9L504.1,265.8L502.3,267.6L501.6,266.7L501.2,267.7L499.2,267.6L497.7,266.5L489.4,272.8L483.5,273.1L482.6,274.1L478.5,274.9L478.7,279.3L474.2,279.6L471.9,274.1L470.7,273.3L469.4,275.1L468.5,275.1L468.8,277.0L470.4,275.9L469.9,277.8L470.9,279.1L469.4,278.6L469.1,279.6L468.3,278.1L466.3,277.9L465.1,284.5L461.5,286.6L460.2,285.2L455.4,284.5L452.3,288.1L444.4,282.0L438.8,282.4L436.7,277.5L433.4,275.1L432.6,275.2L433.8,275.6L432.7,276.5L430.5,275.1L428.9,279.2L425.2,280.4L423.6,279.3L421.1,282.0L421.8,282.7Z" fill="#C8B89A" stroke="#1A1A1A" stroke-width="0.6"></path>
<path id="WV" data-slug="flandre-occidentale" d="M271.4,95.8L270.2,94.7L271.5,93.5L271.3,91.6L269.1,90.1L268.2,88.0L270.5,86.6L266.6,82.5L272.3,76.2L271.9,73.9L269.9,71.5L270.1,68.1L267.6,63.4L245.1,71.6L240.2,69.0L239.2,70.8L237.5,67.4L230.7,66.8L227.2,70.2L227.7,72.8L226.6,75.8L223.4,78.5L208.7,85.3L182.8,103.1L176.8,106.6L174.1,106.9L171.5,109.9L159.5,118.5L140.3,130.8L114.0,143.9L111.1,145.5L112.8,145.8L110.6,147.5L95.8,155.2L100.3,164.7L103.1,181.5L102.0,182.6L102.7,184.9L107.1,188.6L109.6,188.9L110.4,194.7L112.2,196.8L115.0,203.7L114.4,204.7L111.8,205.3L111.8,207.5L106.1,212.6L106.9,214.2L108.9,213.4L109.8,215.6L108.9,217.4L110.0,220.7L109.0,223.5L110.2,225.1L109.4,227.4L110.7,230.9L107.9,234.3L107.9,235.7L110.4,235.2L111.6,236.0L111.6,238.8L113.4,239.7L115.4,247.5L119.8,247.3L122.6,244.3L124.6,247.3L131.7,246.7L134.0,248.3L133.5,251.0L135.4,255.7L137.0,258.1L139.6,258.8L142.0,261.2L140.8,264.0L142.2,263.9L142.8,266.7L146.4,267.7L146.1,270.3L148.0,276.2L153.9,279.5L160.0,277.0L163.1,281.9L164.5,280.4L158.7,272.9L160.9,271.3L158.7,267.7L161.4,265.7L164.5,264.9L164.6,266.7L166.1,266.8L166.3,264.4L169.5,267.3L175.4,265.9L174.7,263.6L180.2,260.9L183.3,260.5L182.9,257.6L180.6,254.7L178.6,253.8L183.3,252.5L184.4,251.2L191.7,248.2L194.1,249.3L194.9,250.9L193.5,253.3L194.8,255.0L194.5,257.2L197.9,258.3L195.7,260.4L196.9,261.4L199.2,261.5L200.3,259.6L203.6,258.1L208.8,260.7L210.3,260.5L213.8,257.5L215.0,253.6L217.8,256.1L223.0,255.0L227.5,265.4L229.6,266.4L230.5,265.5L231.6,266.3L237.8,263.0L239.3,263.2L242.0,266.1L243.6,265.7L247.1,268.0L250.9,267.5L253.0,268.3L255.6,266.6L260.5,274.5L259.4,277.2L267.1,281.5L268.8,276.1L274.2,274.9L273.8,274.2L275.2,273.9L276.5,269.4L282.3,268.6L282.0,266.0L283.0,266.8L283.4,265.3L286.8,265.3L286.8,261.2L287.7,263.4L295.4,254.7L300.0,252.7L301.1,250.0L298.1,246.9L297.7,243.8L296.0,243.7L296.2,242.5L298.2,242.5L299.3,241.1L296.6,239.7L296.0,238.6L296.9,238.2L294.5,236.3L294.0,234.0L292.1,232.8L289.7,234.1L288.9,231.7L286.1,229.5L287.1,229.3L287.3,226.7L288.8,227.3L289.9,226.5L291.0,224.5L290.1,222.4L291.3,220.3L287.9,216.4L286.5,216.4L284.8,218.7L281.9,219.9L278.5,217.4L279.4,215.3L281.0,215.0L281.1,213.6L282.4,212.9L280.4,209.0L282.4,207.9L285.9,209.4L287.0,208.1L287.0,206.6L284.3,206.7L283.3,205.2L285.1,204.4L286.8,205.4L288.1,204.9L286.6,202.6L286.3,203.2L284.6,201.8L282.0,203.4L280.7,202.3L279.9,202.8L278.1,199.7L284.6,197.0L284.1,196.0L282.1,195.6L280.8,192.1L282.4,191.0L282.3,189.7L285.9,187.7L284.7,186.4L286.3,183.8L280.1,173.3L283.0,173.2L285.0,170.5L282.6,168.2L279.5,167.8L279.4,165.5L274.0,163.7L273.6,162.2L269.6,158.2L266.9,157.4L261.0,153.5L264.9,151.0L265.9,149.1L270.4,147.2L271.5,145.2L271.1,144.0L273.2,143.0L276.5,137.7L275.5,136.3L277.6,133.5L276.7,133.5L272.7,126.5L272.5,124.4L270.0,123.4L268.1,124.6L267.1,122.9L268.2,122.5L268.0,121.4L270.7,121.3L272.3,119.2L270.5,113.3L269.2,113.4L268.4,111.3L275.2,108.0L274.7,104.1L271.4,95.8Z" fill="#E8E5DE" stroke="#1A1A1A" stroke-width="0.6"></path>
<path id="NAM" data-slug="namur" d="M491.2,533.8L493.0,534.0L493.9,535.3L501.3,531.7L507.6,532.3L509.2,530.6L510.2,531.0L513.9,524.7L518.8,524.4L522.4,520.1L533.0,518.9L540.1,515.8L545.7,516.2L544.0,512.5L544.8,511.0L543.9,505.8L547.1,497.3L546.3,495.3L544.2,495.8L542.8,492.7L544.7,490.8L547.5,483.3L549.9,482.8L550.4,481.5L557.9,477.9L558.2,476.4L557.1,474.5L558.8,474.7L560.1,469.8L569.4,464.5L573.1,459.0L573.0,461.3L574.8,464.3L584.1,464.2L585.0,468.3L588.3,469.3L586.2,471.7L584.4,471.4L584.4,472.9L582.9,473.5L582.0,475.6L583.3,479.5L582.1,482.6L583.9,483.6L583.1,485.8L580.7,484.2L580.2,481.8L578.4,481.4L575.8,484.0L577.8,487.2L576.5,487.4L577.0,489.1L576.0,492.6L572.2,493.0L572.0,494.5L574.2,496.0L574.1,498.9L576.5,499.4L576.7,502.0L572.1,506.3L572.7,507.5L571.6,509.6L572.4,511.0L571.4,514.5L572.0,516.3L569.5,519.9L566.6,520.7L566.1,528.4L574.2,531.4L577.8,531.4L580.4,537.2L585.1,540.3L584.9,542.2L586.9,544.6L584.2,546.1L584.0,547.1L585.8,546.9L586.3,548.0L584.2,549.3L582.5,552.9L582.9,554.5L581.9,554.6L580.9,556.9L581.1,558.4L579.4,559.1L577.9,558.1L579.9,566.5L582.0,566.6L582.5,572.9L584.0,574.2L581.6,576.0L581.2,579.8L578.8,582.6L581.4,584.1L583.9,582.5L589.8,585.1L593.1,584.1L595.4,584.7L597.0,582.7L598.0,583.2L598.8,580.7L600.8,579.9L601.9,581.1L603.0,580.9L603.4,576.9L605.9,575.0L605.0,573.8L607.3,573.7L607.8,572.4L606.6,571.8L606.8,567.8L605.9,566.3L607.4,564.8L607.6,563.0L612.5,561.3L614.8,559.2L615.3,557.1L614.1,556.4L617.6,556.4L622.8,552.1L619.9,551.4L618.7,550.1L619.6,548.3L621.8,548.4L622.8,547.6L624.9,543.4L627.5,542.9L630.4,540.8L633.4,541.0L634.8,540.1L633.2,539.7L630.4,535.3L631.3,532.2L631.0,527.6L629.0,527.4L624.9,524.3L623.6,522.7L623.8,520.6L622.4,519.8L620.9,520.1L620.2,519.0L618.8,520.8L615.3,522.0L611.6,520.8L611.3,518.2L612.5,515.5L608.9,512.6L609.2,509.9L604.2,505.3L605.5,504.6L607.3,505.7L608.5,504.3L609.3,499.8L612.1,502.2L615.5,499.8L615.8,498.3L618.5,497.2L618.6,494.4L619.5,494.6L621.0,492.7L621.2,490.6L620.1,489.1L622.0,490.0L622.5,489.1L622.5,488.3L620.9,487.5L620.8,485.7L623.5,474.3L624.1,476.1L622.4,479.3L624.8,483.9L635.6,481.9L637.5,482.2L638.3,483.6L641.7,483.6L642.9,481.7L649.2,481.5L649.2,482.5L651.2,481.8L651.7,482.9L657.2,481.1L657.2,479.3L659.2,478.5L664.9,479.0L666.1,477.9L665.9,475.4L664.7,475.1L662.9,472.5L661.5,472.9L660.5,470.6L665.5,467.8L666.7,468.3L667.0,466.8L669.1,465.8L668.9,463.8L667.3,463.3L668.2,462.3L666.7,462.3L665.7,461.1L665.6,459.4L660.6,453.1L661.9,451.8L661.5,450.3L660.4,451.4L658.9,450.3L661.2,447.6L658.3,444.1L653.1,443.3L657.6,439.8L658.9,441.8L663.9,439.9L664.2,438.3L662.5,436.4L666.9,435.0L669.0,432.8L671.3,436.1L675.3,434.0L679.0,431.1L684.8,424.3L688.6,423.2L692.3,420.3L692.5,418.0L691.1,416.6L692.1,416.1L691.0,410.8L689.6,411.5L685.5,410.3L682.4,414.4L681.2,412.3L683.1,409.2L688.6,407.3L692.6,404.4L692.6,402.6L690.5,401.6L689.5,399.0L693.3,395.3L694.0,393.9L692.9,393.3L693.7,391.9L689.8,387.5L686.8,389.8L685.4,389.4L685.7,388.5L684.8,387.4L683.3,387.0L671.9,394.7L668.6,390.4L668.2,386.7L669.9,385.0L668.4,384.4L667.5,385.1L667.2,383.5L664.2,382.1L662.9,383.1L658.7,381.8L656.0,377.5L659.4,374.3L658.4,373.0L659.2,370.6L657.9,368.7L656.8,369.3L651.4,357.3L647.3,358.2L645.8,360.4L644.1,361.0L641.0,356.1L643.2,354.6L642.7,353.8L640.5,354.8L637.7,353.8L636.8,349.5L639.2,348.5L640.0,347.5L639.5,346.4L633.9,349.1L633.4,348.1L631.0,347.6L630.9,346.2L629.6,345.4L630.1,343.9L628.6,341.9L629.7,341.6L629.1,340.7L617.0,339.9L617.8,338.1L621.2,336.8L619.5,333.7L620.5,332.2L619.1,331.4L620.0,330.3L616.8,327.1L616.1,324.2L617.0,323.3L615.6,322.6L615.8,321.2L609.6,317.4L610.4,315.2L609.9,314.1L605.5,311.4L607.3,309.0L606.0,306.1L607.7,305.4L606.3,303.6L605.4,304.5L602.5,301.6L597.5,303.2L597.5,305.6L595.0,308.5L592.0,309.0L588.9,308.0L589.0,310.1L581.1,311.6L576.3,314.2L571.6,314.4L568.1,316.7L567.9,316.0L565.4,316.8L565.4,318.0L567.4,320.1L566.3,320.9L565.3,318.1L563.8,317.1L560.9,317.6L556.4,321.1L556.9,319.9L555.7,318.1L556.6,317.1L554.3,314.0L550.1,314.7L548.6,316.2L549.6,318.7L548.1,319.4L546.5,317.8L542.6,316.5L541.4,314.8L538.8,316.0L537.9,317.5L539.2,325.2L541.5,327.0L540.5,328.7L535.6,330.5L534.9,329.0L534.1,329.8L533.2,328.6L530.7,330.1L529.9,327.5L528.5,328.2L526.6,327.6L523.9,329.8L521.0,330.3L522.1,340.4L520.7,343.4L519.0,343.9L518.5,347.6L517.3,348.5L518.6,351.1L517.7,352.6L518.2,353.9L521.8,350.5L523.1,351.7L524.9,350.5L523.3,352.4L524.2,353.3L523.6,353.7L526.3,358.0L523.5,362.5L523.9,364.3L523.0,365.3L520.6,365.4L522.9,368.2L522.4,369.4L520.5,369.4L521.2,370.5L522.8,370.6L522.6,372.7L524.3,372.4L525.1,373.7L527.3,374.6L529.0,373.2L529.8,374.9L528.4,376.0L527.0,382.3L522.9,384.0L527.3,387.5L527.5,388.6L524.5,389.9L525.0,392.2L522.4,397.0L523.8,399.7L522.5,402.4L524.9,403.0L524.7,408.1L523.8,409.1L519.0,408.6L509.5,411.2L509.0,410.0L506.4,409.0L506.9,407.8L506.2,406.5L500.0,407.0L497.7,411.6L498.2,412.7L496.3,414.5L491.0,412.7L488.5,414.3L484.8,412.4L485.4,414.5L484.2,417.0L481.6,419.4L478.0,418.7L477.9,421.0L476.5,421.6L475.6,424.3L474.2,423.2L472.1,423.1L471.3,424.3L471.4,423.6L469.4,423.4L469.1,425.1L466.8,425.0L467.3,426.6L465.5,425.9L464.4,428.0L462.6,428.2L460.7,430.6L461.3,431.3L460.5,432.6L462.0,432.5L463.2,434.6L465.2,435.2L465.4,436.4L472.9,439.9L477.5,434.7L480.0,436.2L481.7,436.0L482.1,437.7L484.6,438.1L483.2,442.0L484.2,444.4L482.5,445.3L483.1,447.6L482.2,448.8L483.9,453.5L482.8,455.3L476.3,458.5L477.2,463.1L479.4,463.1L479.4,464.5L481.2,465.2L482.0,467.5L481.1,470.0L484.5,474.3L481.4,478.8L483.2,488.0L482.3,492.6L483.5,495.5L482.2,497.9L483.0,499.0L484.4,497.9L484.7,498.9L485.7,498.4L486.4,499.8L485.7,502.5L487.6,511.2L487.2,515.1L494.0,529.8L491.2,533.8Z" fill="#C8B89A" stroke="#1A1A1A" stroke-width="0.6"></path>
<path id="VB" data-slug="brabant-flamand" d="M379.0,273.8L377.6,280.8L379.3,281.6L380.2,281.1L380.6,282.8L382.7,285.0L382.4,287.5L385.7,286.1L386.4,288.1L394.7,287.7L398.2,288.7L402.8,284.8L404.3,286.6L407.4,286.6L411.6,284.0L413.0,286.4L415.8,280.7L418.8,280.2L419.7,282.3L421.5,282.8L421.1,282.0L423.6,279.3L425.2,280.4L428.9,279.2L430.5,275.1L432.7,276.5L433.8,275.6L432.6,275.2L433.4,275.1L436.7,277.5L438.8,282.4L444.4,282.0L452.3,288.1L455.4,284.5L460.2,285.2L461.5,286.6L465.1,284.5L466.3,277.9L468.3,278.1L469.1,279.6L469.4,278.6L470.9,279.1L469.9,277.8L470.4,275.9L468.8,277.0L468.5,275.1L469.4,275.1L470.7,273.3L471.9,274.1L474.2,279.6L478.7,279.3L478.5,274.9L482.6,274.1L483.5,273.1L489.4,272.8L497.7,266.5L499.2,267.6L501.2,267.7L501.6,266.7L502.3,267.6L504.1,265.8L505.6,266.9L503.6,270.4L504.3,271.3L505.6,270.2L505.4,272.0L507.3,273.0L508.3,275.0L510.3,275.6L511.9,274.3L510.5,272.0L511.5,271.2L512.5,271.7L517.1,268.6L518.2,270.1L519.0,268.7L521.1,269.1L522.2,266.8L521.7,266.0L525.4,263.7L526.4,266.4L525.8,269.6L527.3,271.1L530.3,270.1L533.4,270.6L535.3,269.5L537.8,265.7L536.1,265.2L533.8,260.8L535.9,256.3L535.0,252.1L540.2,254.4L541.6,254.3L541.7,253.2L542.5,254.0L544.1,253.4L545.4,255.5L547.8,254.9L549.3,253.0L550.3,255.4L552.9,252.5L552.1,251.4L552.6,250.7L554.6,251.7L557.3,249.4L559.7,249.5L560.1,250.9L561.0,250.4L566.0,252.2L569.5,256.0L570.6,259.6L573.9,259.2L574.4,260.2L575.4,259.6L576.1,260.7L574.5,261.4L575.4,264.0L577.7,262.3L580.7,263.6L584.1,262.6L585.9,264.0L588.7,260.8L589.1,262.1L590.6,261.8L589.4,264.7L591.2,266.3L590.2,268.3L592.3,268.5L594.2,270.6L595.1,269.0L600.2,267.9L600.1,266.6L603.4,264.1L603.5,262.4L605.4,262.9L606.0,261.7L610.5,262.9L613.9,267.9L619.9,271.8L618.7,273.4L619.6,274.3L619.0,276.9L621.6,279.4L623.5,279.8L624.5,282.5L625.6,281.6L629.8,283.5L631.0,282.9L632.4,277.3L635.2,273.0L631.1,271.1L631.6,267.9L634.3,263.5L632.1,258.6L632.5,257.2L634.4,254.2L637.5,254.3L641.7,248.6L641.1,247.8L639.7,248.8L637.1,247.0L638.7,243.5L638.2,240.2L640.0,236.9L638.5,235.9L640.9,234.2L640.8,231.9L642.1,230.6L642.2,225.6L645.3,228.0L646.8,226.6L647.3,223.4L648.6,222.5L649.1,218.2L648.4,216.3L645.3,214.4L642.6,215.0L638.1,214.3L637.5,211.8L632.0,213.7L629.0,215.9L626.1,211.9L623.1,213.5L620.5,211.3L618.5,204.9L620.8,203.9L622.1,201.1L625.6,199.5L627.3,196.7L626.3,191.7L627.4,191.3L627.3,190.4L633.7,186.5L636.0,186.7L633.9,179.7L636.4,178.0L636.7,178.8L635.7,179.5L637.0,181.1L643.1,178.0L634.2,169.7L628.4,169.6L626.4,170.4L626.4,176.9L627.0,176.7L627.3,178.2L622.0,180.9L621.5,178.8L618.9,178.0L614.5,179.5L611.8,173.2L606.5,175.9L605.7,175.4L605.9,173.2L603.9,173.9L602.8,170.9L598.8,173.8L591.3,174.5L589.6,176.4L589.9,177.5L588.0,178.6L585.2,179.5L583.2,178.2L577.1,181.9L570.1,182.5L570.4,179.6L568.5,176.8L567.3,176.7L565.8,173.2L562.6,174.6L559.3,178.4L555.1,177.2L553.6,178.0L553.6,179.4L549.1,182.0L548.1,185.7L546.2,186.5L549.1,181.5L545.0,180.7L544.0,178.1L539.1,179.9L533.8,180.2L532.3,182.6L527.4,182.3L526.1,188.2L523.7,188.0L522.9,189.2L521.9,188.7L521.5,186.7L520.9,187.6L520.1,186.5L519.9,188.1L518.3,186.8L518.9,185.7L516.0,184.9L513.6,186.7L511.7,186.8L511.3,188.5L503.6,182.9L502.4,184.2L503.1,187.3L501.0,189.0L498.8,187.7L498.1,188.3L495.6,184.0L489.8,186.3L488.8,187.6L488.1,186.2L486.9,186.1L483.3,187.3L482.3,182.3L478.3,181.7L478.8,178.6L480.5,176.6L479.1,175.9L479.3,176.9L477.0,178.1L476.5,180.1L472.4,180.5L473.8,177.9L473.4,177.2L468.2,177.2L465.5,174.0L460.0,173.0L459.4,171.8L456.9,172.1L455.6,174.1L453.0,174.7L451.1,173.9L450.6,179.4L447.0,181.4L449.9,184.7L446.8,188.7L447.2,189.4L446.8,189.0L442.1,191.7L439.6,191.8L436.4,189.7L433.5,190.3L433.6,193.2L432.5,194.7L432.0,194.2L430.6,197.4L433.8,202.9L434.9,202.9L434.0,204.0L434.7,204.8L432.8,206.1L434.7,208.3L433.8,209.5L432.7,209.3L432.7,211.3L430.8,210.8L429.7,213.2L429.5,212.2L426.4,211.5L425.7,210.3L420.8,208.2L419.4,210.2L420.0,213.6L421.9,215.6L416.3,219.1L418.0,221.8L419.5,222.3L418.0,226.1L418.5,226.6L417.5,228.3L415.1,228.9L412.8,234.0L413.0,235.9L409.3,239.4L410.9,241.1L412.8,240.2L415.3,240.8L416.4,247.3L413.2,254.0L413.6,254.7L411.9,257.0L411.1,256.3L409.2,257.4L408.5,259.2L406.2,257.7L403.9,261.2L400.7,258.6L397.8,262.9L394.2,262.6L394.9,259.8L393.1,259.7L392.4,258.4L390.3,259.3L388.6,260.7L386.3,265.4L386.8,269.4L389.5,268.5L389.9,271.5L391.2,272.3L390.5,274.2L384.0,275.6L382.6,273.8L381.1,275.1L379.0,273.8Z M469.8,218.6L476.9,218.5L479.8,219.8L481.8,215.6L485.1,214.3L487.4,215.1L487.0,216.6L491.2,220.6L490.0,221.9L492.1,225.9L490.1,226.3L488.7,229.5L490.6,231.6L497.2,234.7L498.4,237.1L498.1,240.1L500.4,245.0L495.8,245.7L496.4,246.4L494.4,248.0L495.2,248.8L496.4,248.4L494.2,249.0L501.6,254.0L491.6,259.5L491.3,258.9L480.8,263.7L480.4,261.8L473.3,259.8L472.0,260.4L470.0,259.8L468.0,257.3L466.9,252.9L464.5,252.2L463.9,250.4L464.8,247.7L463.5,247.5L462.3,249.0L460.1,249.4L457.8,247.7L455.1,248.1L454.3,246.0L453.0,245.3L452.0,245.9L453.9,243.1L454.4,240.3L457.6,239.8L458.3,239.0L459.9,239.3L460.1,236.1L461.0,235.9L460.0,234.0L461.4,233.4L459.4,232.1L459.1,230.1L463.2,225.5L462.2,222.5L465.0,221.8L469.8,218.6Z" fill="#E8E5DE" stroke="#1A1A1A" stroke-width="0.6"></path>
<path id="AN" data-slug="anvers" d="M451.1,173.9L453.0,174.7L455.6,174.1L456.9,172.1L459.4,171.8L460.0,173.0L465.5,174.0L468.2,177.2L473.4,177.2L473.8,177.9L472.4,180.5L473.7,179.8L475.9,180.4L477.0,178.1L479.3,176.9L478.9,176.0L480.4,176.4L478.1,181.3L482.3,182.3L483.4,187.4L486.6,186.1L488.1,186.2L488.8,187.6L489.8,186.3L495.6,184.0L498.1,188.3L498.8,187.7L501.0,189.0L503.1,187.3L502.4,184.2L503.6,182.9L511.3,188.5L511.7,186.8L513.6,186.7L516.0,184.9L518.9,185.7L518.3,186.8L519.9,188.1L520.1,186.5L520.9,187.6L521.5,186.7L522.6,189.2L523.7,188.0L526.1,188.2L527.4,182.3L532.3,182.6L533.8,180.2L539.1,179.9L544.0,178.1L545.0,180.7L549.1,181.5L546.1,186.2L547.8,186.0L549.1,182.0L553.6,179.4L553.6,178.0L555.1,177.2L559.3,178.4L562.6,174.6L565.8,173.2L567.3,176.7L568.5,176.8L570.4,179.6L570.1,182.5L571.6,182.6L573.1,181.7L577.1,181.9L583.2,178.2L585.2,179.5L588.0,178.6L589.9,177.5L589.6,176.4L591.3,174.5L598.8,173.8L602.8,170.9L603.9,173.9L605.9,173.2L606.0,174.5L609.2,167.6L611.6,167.2L612.2,161.6L617.1,161.8L629.7,157.9L631.3,154.3L636.3,150.4L637.3,147.4L647.8,147.2L651.5,145.0L652.6,140.1L656.4,140.3L659.0,142.4L663.4,137.7L664.4,137.7L664.2,125.6L659.7,119.9L655.2,116.5L654.7,113.5L655.0,104.8L659.5,100.1L657.1,97.8L660.4,85.7L651.7,80.0L643.8,84.0L637.9,82.3L637.3,72.0L624.7,56.7L631.7,44.2L626.3,31.0L619.4,31.2L617.7,28.5L617.9,25.9L616.8,25.9L614.5,27.7L612.1,30.8L611.3,33.3L612.1,36.1L610.8,40.1L602.1,47.2L595.0,55.8L594.7,54.6L594.0,54.9L594.7,56.0L593.3,56.6L591.8,56.2L594.0,55.3L591.0,53.8L591.0,52.1L589.7,50.5L588.9,51.1L589.5,50.1L588.9,49.7L588.3,50.7L586.0,49.1L583.7,49.6L581.9,50.7L582.1,51.6L580.4,50.2L576.2,49.7L565.8,51.6L562.1,49.7L561.0,44.5L562.6,44.2L565.2,43.9L566.8,45.2L569.2,45.1L575.6,48.9L576.7,47.2L573.9,47.2L572.9,38.6L575.4,35.2L575.9,36.1L577.2,35.1L575.5,34.4L576.8,28.0L572.4,27.2L571.3,23.4L567.7,21.8L565.1,22.1L564.0,20.3L562.5,20.0L558.1,21.7L556.8,25.2L553.3,26.9L550.6,31.9L547.8,32.5L545.7,37.5L540.1,40.0L540.8,45.9L537.0,45.7L534.8,47.3L532.5,46.0L520.9,43.8L512.7,47.0L511.5,38.3L515.4,30.5L513.3,27.5L500.4,28.8L497.9,31.2L493.3,32.0L480.8,38.0L480.1,39.2L482.7,39.3L483.7,40.8L483.4,42.9L484.2,42.9L483.8,44.2L482.8,44.2L483.4,45.7L482.6,45.6L481.0,47.6L482.6,51.9L491.0,62.8L489.6,64.0L490.9,66.4L489.0,66.0L481.2,69.5L472.1,68.5L470.7,61.9L446.2,63.1L448.2,67.8L455.5,73.8L457.4,77.0L459.6,86.8L465.1,89.7L467.6,92.1L467.0,94.8L463.6,99.8L463.8,101.3L469.9,103.8L474.4,107.1L471.4,110.5L472.1,110.4L473.6,114.4L472.8,115.1L475.5,119.6L472.0,121.3L469.7,125.0L469.7,136.8L468.8,141.9L467.7,143.5L465.1,144.9L458.4,145.7L452.8,148.1L445.3,146.0L441.7,150.1L437.3,153.2L437.0,156.8L439.6,158.2L440.4,159.8L439.7,166.0L442.4,167.8L439.9,170.7L440.5,173.0L441.7,172.8L445.4,175.6L449.4,171.8L451.1,173.9Z M582.7,50.5L583.3,50.5L582.7,50.5Z M586.7,46.8L587.3,46.6L586.7,46.8Z M594.9,52.8L596.5,52.8L596.4,51.5L594.6,51.8L595.5,52.4L594.9,52.8Z M597.3,42.7L597.2,41.6L596.2,41.9L596.1,40.7L597.2,40.8L596.3,39.3L594.8,41.9L594.8,40.2L593.9,40.1L593.7,39.0L592.8,39.3L593.3,42.4L592.0,42.9L596.4,44.9L597.3,42.7Z M593.6,41.8L593.9,40.8L593.6,41.8Z M597.3,42.7L597.8,43.0L597.3,42.7Z M597.7,41.4L597.6,42.1L597.7,41.4Z M599.3,39.8L598.5,40.1L599.3,39.8Z M596.2,38.9L598.9,39.0L599.7,36.9L598.9,37.9L595.8,38.3L596.2,38.9Z" fill="#E8E5DE" stroke="#1A1A1A" stroke-width="0.6"></path>
<path id="BXL" data-slug="bruxelles" d="M462.7,248.5L463.5,247.5L464.8,247.7L463.9,250.4L464.5,252.2L466.9,252.9L468.0,257.3L470.0,259.8L472.0,260.4L473.3,259.8L480.4,261.8L480.8,263.7L491.3,258.9L491.6,259.5L501.6,254.0L494.2,249.0L495.2,248.8L494.4,248.0L496.4,246.4L495.8,245.7L500.4,245.0L498.1,240.1L498.4,237.1L497.2,234.7L490.6,231.6L488.7,229.5L490.1,226.3L492.1,225.9L490.0,221.9L491.2,220.6L487.0,216.6L487.4,215.1L485.1,214.3L481.8,215.6L479.8,219.8L472.3,218.1L462.2,222.5L463.2,225.5L459.1,230.4L459.4,232.1L461.4,233.4L460.0,234.0L461.0,235.9L460.0,236.3L459.9,239.3L458.3,239.0L457.6,239.8L454.4,240.3L453.9,243.1L451.8,245.3L454.3,246.0L455.1,248.1L457.8,247.7L460.1,249.4L462.7,248.5Z" fill="#1A1A1A" stroke="#1A1A1A" stroke-width="0.6"></path>
<text x="703" y="187" text-anchor="middle" dominant-baseline="middle" font-family="sans-serif" font-size="11" font-weight="600" fill="#1A1A1A">LIM</text>
<text x="344" y="391" text-anchor="middle" dominant-baseline="middle" font-family="sans-serif" font-size="11" font-weight="600" fill="#1A1A1A">HAI</text>
<text x="368" y="174" text-anchor="middle" dominant-baseline="middle" font-family="sans-serif" font-size="11" font-weight="600" fill="#1A1A1A">OV</text>
<text x="755" y="360" text-anchor="middle" dominant-baseline="middle" font-family="sans-serif" font-size="11" font-weight="600" fill="#1A1A1A">LIE</text>
<text x="715" y="527" text-anchor="middle" dominant-baseline="middle" font-family="sans-serif" font-size="11" font-weight="600" fill="#1A1A1A">LUX</text>
<text x="517" y="296" text-anchor="middle" dominant-baseline="middle" font-family="sans-serif" font-size="11" font-weight="600" fill="#1A1A1A">BW</text>
<text x="198" y="173" text-anchor="middle" dominant-baseline="middle" font-family="sans-serif" font-size="11" font-weight="600" fill="#1A1A1A">WV</text>
<text x="577" y="443" text-anchor="middle" dominant-baseline="middle" font-family="sans-serif" font-size="11" font-weight="600" fill="#1A1A1A">NAM</text>
<text x="513" y="229" text-anchor="middle" dominant-baseline="middle" font-family="sans-serif" font-size="11" font-weight="600" fill="#1A1A1A">VB</text>
<text x="551" y="105" text-anchor="middle" dominant-baseline="middle" font-family="sans-serif" font-size="11" font-weight="600" fill="#1A1A1A">AN</text>
<text x="477" y="239" text-anchor="middle" dominant-baseline="middle" font-family="sans-serif" font-size="11" font-weight="600" fill="#FFD94F">BXL</text>
</svg>