<?xml version="1.0" encoding="UTF-8"?><svg id="a" xmlns="http://www.w3.org/2000/svg" viewBox="0 0 265 703"><defs><style>.b{fill:#fff;}.c{fill:#ffd950;}</style></defs><polygon class="b" points="0 572.51 132.5 703 265 572.51 265 0 0 0 0 572.51"/><polygon class="c" points="130.72 223.88 116.46 216.76 132.5 216.76 249.74 216.76 249.74 162.23 130.72 102.72 116.46 95.59 132.5 95.59 249.74 95.59 249.74 42.85 15.26 42.85 15.26 97.02 134.28 156.53 148.54 163.66 132.5 163.66 15.26 163.66 15.26 218.18 134.28 277.34 148.54 284.82 132.5 284.82 15.26 284.82 15.26 337.56 249.74 337.56 249.74 283.4 130.72 223.88"/><polygon class="c" points="190.59 603.77 74.41 603.77 132.5 660.79 190.59 603.77"/><path class="c" d="M132.5,547.46l58.09-58.09v114.39l59.16-58.44v-58.44h-59.16l59.16-58.09v-58.44H15.26v58.44l59.16,58.09H15.26v58.44l59.16,58.09v-114.39l58.09,58.09h0v.36ZM74.41,372.84l58.09,58.09,58.09-58.09v114.39h-116.18v-114.39Z"/></svg>