<?xml version="1.0" encoding="UTF-8"?>
<svg id="Calque_1" xmlns="http://www.w3.org/2000/svg" xmlns:xlink="http://www.w3.org/1999/xlink" version="1.1" viewBox="0 0 1033.56 1170.79">
  <!-- Generator: Adobe Illustrator 30.3.0, SVG Export Plug-In . SVG Version: 2.1.3 Build 182)  -->
  <defs>
    <style>
      .st0, .st1 {
        fill: #e2e2e2;
      }

      .st2 {
        fill: none;
        stroke: #aaa;
        stroke-linecap: round;
        stroke-linejoin: round;
        stroke-width: .68px;
      }

      .st1 {
        isolation: isolate;
      }

      .st1, .st3 {
        opacity: .1;
      }
    </style>
  </defs>
  <a xlink:href="province-1.html">
    <path class="st2" d="M353.74,348.74c-2.13-3.02-2.53-7.58.12-10.16,3.35-3.25,8.91-1.61,13.23.23,6.88,2.93,13.76,5.87,20.64,8.81,2.22.94,4.47,1.91,6.35,3.41,2.18,1.74,3.8,4.13,6.16,5.63,3.05,1.94,6.86,2.11,10.42,2.81,3.56.69,7.4,2.36,8.62,5.74-1.78,3.56-6.42,4.59-10.44,4.59-7.28,0-14.56-2.03-20.77-5.8-3.47-2.11-6.65-4.76-10.45-6.22-2.38-.92-5.14-1.25-7.58-.67-3.03.72-6.23-.01-8.65-1.97-3.36-2.71-7.3-5.88-7.66-6.39h0Z"/>
  </a>
  <a xlink:href="province-2.html">
    <path class="st2" d="M397.63,315.83c5.7-1.66,12.12-.58,16.97,2.85,5,3.53,8.06,9.12,11.89,13.89,7.85,9.77,19.01,16.16,29.33,23.27,1.96,1.34,4,2.85,4.46,5.36.22,1.21-.13,2.5-1.06,3.3-1.53,1.32-3.46.62-5.11-.07-9.31-3.91-18.62-7.83-27.92-11.74-3.87-1.63-7.83-3.3-10.95-6.12-5.64-5.09-8.16-13.53-14.95-16.93-3.59-1.8-12.79.07-13.97-3.94-1.17-4.01,8.36-9,11.31-9.85h0v-.02Z"/>
  </a>
  <a xlink:href="province-3.html">
    <path class="st2" d="M474.82,450.52c-2.98,3.51-6.1,7.03-9.34,10.4-15.44,15.39-35.62,26.06-56.89,29.57-13,1.89-20.32-8.92-30.34-15.53-7.58-5.13-17.61-8.24-26.95-8.92-15.04-1.75-21.94,17.96-37.11,7.97-5.28-3.24-8.13-9.18-9.75-14.99-1.63-4.86-2.44-9.05-6.36-11.89-17.2-8.78-65.69,24.04-82.76,34.3-13.68,8.78-26.14,18.5-39.82,26.74-10.97,7.29-25.73,11.75-32.64,23.36-7.18,13.23,4.34,30.52,5.55,43.76,1.35,7.7,0,15.53.81,23.36,1.9,17.28,20.18,23.77,29.93,36.19,11.11,12.15,21.81,24.71,37.52,11.61,10.56-8.78,24.79-20.66,39.01-13.37,14.49,8.92,20.04,26.47,24.52,42.13,3.25,15.26,4.74,38.35,23.43,41.87,7.32,1.08,17.33-1.08,23.84,0,3.65.67,7.18,2.03,11.51,4.05,18.15,7.7,22.62,15.67,25.06,34.98,1.08,6.48,2.03,15.53,7.18,18.37,6.36,1.89,11.11-3.78,19.1-4.46,11.24-.81,22.75,1.22,34,.41,21.26-.54,22.48,10.94,36.43,20.39,2.85,1.89,7.31,2.84,8.13,6.62,1.22,9.45-5.28,19.31-5.96,28.23-1.22,10.81,11.11,18.77,8.26,29.44-1.08,5.53-3.79,10.53-5.83,15.8-6.64,16.48,13.27,19.45,25.87,20.79,10.84.95,22.35,3.51,33.45,1.89,13.68-2.84,30.48-8.1,39.96-18.09,6.91-8.24,7.85-19.31,13.82-28.23,4.74-7.42,14.9-18.77,23.97-15.12,8.8,6.34.95,17.96-1.35,26.06-2.57,8.1-5.96,16.61-4.6,25.25,1.63,10.94,9.21,20.53,9.75,32.14.68,6.89-1.76,15.12.95,21.34,5.55,10.4,20.59,3.11,38.2,18.09,6.64,5.27,13.68,11.48,20.86,14.72,8.67,4.19,19.1,6.21,26.14,12.83,4.61,4.32,6.91,9.86,11.65,13.78,4.88,4.32,12.6,8.78,16.39,14.99,1.49,2.3,2.85,4.86,3.93,7.16,5.28,13.37,17.74,13.37,29.93,8.64,9.62-2.43,18.15-5.27,28.31-6.75,4.88-.54,10.43-1.35,14.63-3.51,12.19-5.94,16.12-19.86,15.71-32.42-1.08-11.61-8.94-22.28-15.85-31.73-12.33-14.99-12.46-35.24-6.77-52.94,3.93-10.53,11.24-20.12,15.44-31.06,2.17-5.4,4.47-10.81,7.72-15.8,6.5-11.07,14.9-25.79,29.12-26.87,5.28-.67,11.24,3.38,15.98,3.92,8.13.81,10.16-8.51,12.6-14.45,2.85-6.62,7.85-12.83,12.6-18.77,6.36-7.83,17.33-13.23,23.7-19.17,6.77-6.62,2.85-17.01,1.9-25.39-2.3-24.58-4.87-25.39-25.87-36.19-2.3-1.48-4.2-3.24-5.28-5.81-2.98-7.29,3.25-16.48,4.06-22.69,1.76-9.05-10.29-15.53-14.49-22.82-22.75-31.33-49.03-26.74-82.62-28.9-15.17-2.56-19.1-22.82-15.17-35.38,3.93-8.64,10.56-16.61,13.27-25.79,2.03-5.81,2.57-12.02,4.34-17.96,3.12-10.4,7.32-20.79,11.24-30.39,7.05-19.31-9.75-21.07-23.57-26.74-27.63-9.45-24.52-23.5-40.91-30.12-20.73-3.24-31.29,12.7-54.04-2.84-5.42-3.38-9.21-7.83-14.22-12.56-2.98-2.84-6.09-5.81-8.13-9.45-5.69-7.97-5.55-39.43-20.32-32.41-10.43,6.35-17.88,16.2-31.83,14.18-17.47-2.43-6.5-6.62-8.8-16.34-8.54-15.39-25.19,3.24-35.49,7.7-10.7,5.53-17.2-1.89-25.46-7.02-7.18-4.19-17.33-1.35-21.4,5.81-3.65,6.21-1.35,14.45-4.47,20.8-3.94,5.06-10.47,3.24-17.23,3.07-5.27-.14-10.35,1.97-13.97,5.79l-4.14,4.37v.02l-.04-.02Z"/>
  </a>
  <a xlink:href="province-4.html">
    <path class="st2" d="M305.36,462.15l4.64,38.31c.4,1.89.66,3.92.4,5.82-.26,2.44-1.59,4.6-2.78,6.76-3.57,6.09-7.15,12.31-10.73,18.4-.93,1.49-1.85,3.11-1.72,4.87,0,1.49.93,2.84,1.85,3.92,3.71,4.87,9.14,7.98,13.64,12.04,9.4,8.39,14.83,21.23,14.57,34.08-.13,5.54-1.32,10.96-.93,16.5.53,7.17,3.71,13.93,6.75,20.42,1.59,3.24,3.18,7.17,1.32,10.28-.93,1.76-2.65,2.71-4.5,3.65-9.27,4.6-19.99,6.22-30.19,4.33-9.4-1.76-24.76-5.03-34.02-2.6"/>
  </a>
  <a xlink:href="province-5.html">
    <path class="st2" d="M332.07,634.31c7.6,9.78,29.13,18.15,39.17,11.08,5.02-3.53,9.09-8.97,15.2-9.78,4.62-.55,9.09,1.9,13.3,4.07,4.07,2.04,8.28,3.8,12.89,3.94s9.23-1.9,11.4-5.84c1.22-2.17,1.76-5.03,4.07-6.25,2.85-1.36,6.25,1.22,9.36.68,2.72-.41,4.48-2.99,5.84-5.3,3.53-6.11,5.97-12.77,7.6-19.7,1.63-7.61,2.45-16.03,7.87-21.47,3.94-3.94,9.64-5.71,13.3-9.78,3.8-4.35,4.62-10.6,5.29-16.3.27-3.4.55-6.79-.82-9.92-2.31-5.03-8.82-7.61-9.91-13.04-.95-4.62,2.85-9.1,7.33-10.87,4.48-1.77,9.36-1.36,14.12-1.36s9.77-.41,13.57-3.26c4.21-3.26,5.84-8.83,6.52-14.13,1.22-8.97.82-18.2-2.85-26.49-5.02-11.27-22.12-22.51-31.9-29.84"/>
  </a>
  <a xlink:href="province-6.html">
    <path class="st2" d="M476.89,549.67c22.59-3.76,54.37-6.71,76.82-1.61,12.98,2.95,25.69,8.32,38.95,8.72,17.04.4,33.67-7.65,45.98-19.46,2.57-2.42,5.01-5.1,8.12-6.84,5.27-2.95,11.63-2.82,17.18-4.83,6.49-2.28,11.77-7.11,16.91-11.94,4.05-3.76,8.25-8.05,9.2-13.42,1.22-7.51-10.83-16.88-1.41-29.02"/>
  </a>
  <a xlink:href="province-7.html">
    <path class="st2" d="M626.26,546.53c4.93,14.34,22.66,12.71,33.08,10.69,3.38-.68,7.17-1.49,10.01.54,2.16,1.48,2.97,4.05,3.65,6.62,2.84,9.86,3.92,21.48-2.44,29.59-3.38,4.33-8.79,7.3-10.96,12.3-2.3,5.67,0,12.16-1.22,18.1-1.08,4.86-4.46,8.92-5.68,13.78-2.03,8.92,4.46,17.97,12.85,21.75,8.39,3.78,17.86,3.24,26.92,2.03,25.43-3.24,61.66-17.21,83.16-31"/>
  </a>
  <a xlink:href="province-8.html">
    <path class="st2" d="M839.95,826.34c-6.47-19.59,3.83-33.2-.35-45.17-2.43-6.94-8.89-12.25-16.17-12.92-7.27-.68-14.68,2.99-18.46,9.25-3.1,5.03-3.91,11.7-8.62,15.38-4.58,3.54-11.72,2.58-16.17-1.09-4.44-3.81-6.74-9.66-7.28-15.51-.4-3.4-.27-6.8-1.34-9.93-2.29-5.98-8.62-9.39-14.55-11.7-10.1-3.95-20.75-6.26-31.39-8.57-4.85-1.09-10.1-2.04-14.42.41-4.04,2.31-6.06,7.08-7.01,11.57s-1.08,9.25-2.56,13.74c-2.02,5.58-6.2,10.07-10.24,14.42-5.12,5.44-10.51,11.16-17.38,14.29-1.35.68-2.7,1.23-3.64,2.31-.81,1.09-.95,2.45-.81,3.81.27,6.94,4.99,12.92,9.97,17.82,2.29,2.17,4.72,4.77,4.45,8.03-.27,2.18-1.75,3.81-3.23,5.44-4.85,5.17-10.38,10.75-17.38,11.16-7.41.41-14.82-5.03-21.69-2.17-4.58,1.91-7.01,6.8-9.03,11.43-2.29,5.04-4.58,10.34-5.12,15.92-.54,5.58,1.21,11.7,5.66,14.97,4.72,3.54,12.53,4.22,14.01,10.07.54,1.91,0,3.95-.54,5.85-2.02,6.39-5.93,12.11-11.05,16.19-2.96,2.45-6.47,4.36-9.03,7.21-2.56,2.86-1.39,14.84.49,18.24"/>
  </a>
  <a xlink:href="province-9.html">
    <path class="st2" d="M520.22,893.18c-2.31-10.64-5.3-26.27-5.58-37.18-.14-7.14,0-14.41-1.35-21.41-1.35-7-4.48-14-10.17-18.45-2.98-2.29-6.92-4.17-8.27-7.68-1.63-4.58,1.76-9.69.55-14.41-.55-2.15-2.17-4.04-2.98-6.2-3.12-7.94,4.75-16.29,13.15-18.32,8.41-2.02,17.09-.54,25.5-2.29,16.55-3.37,28.62-21.14,25.77-37.57-.95-5.11-2.98-9.83-3.93-14.81s-.82-10.64,2.31-14.68c3.25-4.17,8.82-5.65,14.11-6.06s10.58.4,15.87-.27c6.92-.95,13.43-4.31,18.04-9.56,2.85-3.23,5.02-7.01,7.86-10.23,2.85-3.23,6.92-5.79,11.12-5.52,4.88.27,8.82,4.31,10.86,8.62s2.71,9.29,4.07,13.87c4.75,15.75,18.45,28.68,34.73,32.32,2.44.54,4.88.95,6.92,2.29,6.11,4.04,4.48,13.06,4.88,20.33.41,6.06,2.85,11.85,6.78,16.43.81.95,1.63,1.75,2.71,2.15,3.66,1.21,11.57-7.06,12.92-10.57"/>
  </a>
  <a xlink:href="province-10.html">
    <path class="st2" d="M552.14,707.31c-1.08-.68-13.01-.66-14.09-.52-7.97,1.76-16.21-1.22-23.51-4.61s-14.6-7.73-22.7-8.95c-4.46-.68-9.19-.41-13.51-2.04-2.03-.82-3.92-2.17-4.86-4.07-.68-1.35-.81-2.98-1.22-4.47-1.08-4.07-4.86-7.32-9.05-7.86-3.24-.41-6.49.68-9.73.54-3.24-.14-6.89-2.44-6.62-5.69,0-1.49.95-2.71,1.35-4.2.81-4.2-3.65-7.73-7.84-8.14-4.19-.41-8.38,1.22-12.57,1.63-5,.54-10-.68-14.86-1.9-2.16-.54-4.33-1.08-5.94-2.58-1.62-1.49-.49-10.38.86-12.14"/>
  </a>
  <a xlink:href="province-11.html">
    <path class="st2" d="M446.1,659.04c7.3-7.44,21.39-14.11,31.66-12.35,6.22.95,12.16,3.79,18.38,4.87,12.57,2.16,25.67-2.85,35.67-10.83,5.27-4.2,10.13-9.33,16.49-11.64,5-1.89,10.54-1.76,15.94-1.35,6.22.41,12.71,1.08,18.24,3.79,4.05,2.03,7.84,5.14,12.3,5.55,6.49.54,12.3-4.6,18.78-5.01,7.7-.41,14.19,6.23,16.35,13.67,2.16,7.31-.05,17.5-1.27,25.08"/>
  </a>
  <a xlink:href="province-12.html">
    <path class="st2" d="M630.82,652.58c6.57.74,24.89,2.03,30.79,4.56"/>
  </a>
  <a xlink:href="province-13.html">
    <path class="st2" d="M491.66,591.72c-4.36,1.08-8.58,3.93-10.35,8-1.23,3.12-1.23,6.51-.55,9.76.68,3.93,2.18,7.73,4.77,10.57,2.59,2.85,6.68,4.75,10.62,4.2,2.45-.41,5.31-1.63,7.36-.14,2.18,1.63,1.64,5.02,3.27,7.18,2.04,2.57,5.99,2.04,9.26,1.22,5.31-1.35,11.3-3.53,12.94-8.81.96-3.25-.14-6.78-1.36-9.9-1.36-3.66-2.72-7.32-5.04-10.44-6.4-8.54-20.29-14.24-30.78-11.8l-.14.14h0v.02Z"/>
  </a>
  <a xlink:href="province-14.html">
    <path class="st2" d="M473.96,450.75c-7.74-5.4-15.59-10.86-24.4-14.23-17.07-6.52-35.99-4.64-54.25-5.33-3.58-.14-7.22-.39-10.53-1.74-4.48-1.83-7.91-5.49-11.4-8.84-5.98-5.74-12.54-10.87-19.56-15.28-3.67-2.32-7.52-4.48-10.52-7.62-2.99-3.15-5.05-7.55-4.19-11.8.87-4.33,4.63-7.66,8.79-9.16s8.71-1.48,13.13-1.22c15.59.87,32.33,5.01,41.99,17.25,3.86,4.88,6.39,10.84,10.95,15.07,4.09,3.79,9.44,5.86,14.65,7.85,6.32,2.41,12.64,4.82,18.96,7.22,6.4,2.44,13.91,4.81,19.69.96,4.65-3.09,6.25-9.29,3.7-14.25-3.31-6.43-11.62-8.02-18.79-8.99s-15.51-2.96-18.32-9.62c-.56-1.34-.82-2.97.01-4.16.72-1.03,2.05-1.43,3.3-1.56,6.44-.71,13.24,3.62,19.14.93,5.05-2.3,7.62-9.17,13.15-9.71,1.76-.17,3.5.38,5.22.82,19.16,5,38.93-2.24,57.23-10.41,2.67-1.19,2.97-4.9.49-6.42-4.41-2.71-9.73-4.09-14.93-4.75-7.31-.92-14.76-.66-22.01-2.02-14.5-2.73-27.55-12.34-34.45-25.37-2.48-4.67-4.23-9.8-7.5-13.96-2.66-3.38-6.48-6.61-6.27-10.91.16-3.19,2.47-5.54,5.29-7.33,2.66-1.7,4.71-4.18,5.82-7.13,4.48-11.98,13.34-22.47,22.2-31.71,10.04-10.48,21.11-20.09,29.66-31.81,6.03-8.28,10.69-17.46,15.32-26.6,5.18-10.21,10.36-20.43,15.53-30.65,9.26-18.28,14.1-38.62,13.58-59.1-.22-8.61-1.75-17.24-.82-25.81,1.46-13.55,8.85-25.64,16.06-37.21,1.93-3.09,4.01-6.33,7.28-7.96,5.24-2.62,12.15.23,14.95,5.36,1.64,3.01,2.02,6.53,1.41,9.92-.87,4.85,2.68,9.42,7.6,9.83,6.78.56,13.94-1.3,20.05-4.47,9.36-4.85,17-12.36,25.13-19.06,19.71-16.23,42.71-27.9,65.49-39.43"/>
  </a>
  <a xlink:href="province-15.html">
    <path class="st2" d="M830.36,638.89c3.68-14.77,7.36-29.53,11.04-44.3,1.23-4.92,2.43-10.25.49-14.93-5.28-12.8-27.81-9.78-33.26-22.51-5.99-13.97,14.64-23.53,29.79-24.75,14.53-1.18,34.15-9.77,30.64-22.9-.28-1.03-.92-1.93-1.79-2.55-3.03-2.14-6.05-4.28-9.08-6.42-2.61-1.84-2.6-5.73.02-7.55,31.69-21.99,41.53-71.32,19.1-103.18-9.4-13.35-23.13-23.42-31.17-37.62-7.55-13.34-7.49-33.26,4.67-41.61,1.35-.92,3.1-1.09,4.58-.38,15.92,7.68,36.88,2.71,48.14-10.8,1.85-2.23,5.28-2.33,7.12-.1,14.26,17.2,44.98,13.05,66.67,3,13.68-6.34,27.71-14.9,33.35-28.88,4.59-11.36.16-26.57-9.73-32.26-2.85-1.64-3.03-5.72-.42-7.71,16.75-12.79,23.59-26.44,32.71-40.58"/>
  </a>
  <a xlink:href="province-16.html">
    <path class="st2" d="M.34,596.34c1.58-11.5,3.37-23.6,9.29-32.44,8-11.95,21.27-14.8,33.42-16.9,34.1-5.89,68.19-11.77,102.29-17.67"/>
  </a>
  <a xlink:href="province-17.html">
    <path class="st2" d="M755.12,1027.73c16.4,4.8,25.39,25.48,30.57,43.39,6.37,21.99,10.98,47.85,30.79,59.22,9.62-9.08,15.53-22,16.12-35.24,17.66,9.29,31.24,26.08,36.67,45.32,1.15,4.06,2.12,8.52,5.32,11.25,4.87,4.15,12.27,2.31,18.14-.21,17.46-7.48,33.88-19.32,52.84-20.21,18.97-.88,58.48,20.42,85.38,39.2"/>
  </a>
  <a xlink:href="https://www.welldonedrill.energy/be-fr/references/nos-references-a-bruxelles/">
    <path class="st1" d="M491.66,591.72c-4.36,1.08-8.58,3.93-10.35,8-1.23,3.12-1.23,6.51-.55,9.76.68,3.93,2.18,7.73,4.77,10.57,2.59,2.85,6.68,4.75,10.62,4.2,2.45-.41,5.31-1.63,7.36-.14,2.18,1.63,1.64,5.02,3.27,7.18,2.04,2.57,5.99,2.04,9.26,1.22,5.31-1.35,11.3-3.53,12.94-8.81.96-3.25-.14-6.78-1.36-9.9-1.36-3.66-2.72-7.32-5.04-10.44-6.4-8.54-20.29-14.24-30.78-11.8l-.14.14h0v.02Z"/>
  </a>
  <a xlink:href="https://www.welldonedrill.energy/be-fr/references/nos-references-en-flandre-orientale/">
    <path class="st1" d="M508.18,490.26c-.18-1.1-.4-2.2-.67-3.29-.27-1.09-.58-2.16-.94-3.22-.36-1.06-.76-2.11-1.22-3.15-.15-.35-.32-.7-.5-1.06-.36-.7-.76-1.41-1.2-2.11-.44-.7-.92-1.4-1.44-2.1s-1.07-1.39-1.65-2.08c-.44-.53-.91-1.05-1.39-1.57-.3-.33-.61-.67-.93-1-.33-.34-.66-.68-1-1.03-.51-.51-1.02-1.01-1.55-1.52-.35-.34-.71-.67-1.07-1-.89-.82-1.81-1.62-2.74-2.41-.41-.35-.82-.7-1.24-1.05-.94-.78-1.89-1.55-2.84-2.31-.78-.62-1.56-1.22-2.34-1.82s-1.56-1.19-2.32-1.76c-1.92-1.44-3.8-2.81-5.55-4.1-.61-.44-1.2-.88-1.78-1.31-.76-.56-1.48-1.1-2.17-1.62-2.64,3.1-5.38,6.2-8.23,9.2-15.39,15.49-35.5,26.22-56.7,29.75-12.96,1.9-20.24-8.97-30.23-15.62-7.56-5.17-17.55-8.28-26.87-8.97-14.99-1.76-21.87,18.08-36.99,8.02-4.24-2.62-6.91-7.02-8.64-11.69l4.72,38.46c.4,1.9.67,3.94.4,5.84-.23,2.05-1.21,3.91-2.24,5.74-.2.35-.39.7-.59,1.04-.54.91-1.09,1.83-1.63,2.75-1.85,3.12-3.7,6.26-5.55,9.4-1.25,2.12-2.5,4.24-3.76,6.34-.35.56-.71,1.13-1,1.73-.4.8-.69,1.63-.75,2.5-.01.22-.02.44,0,.65,0,1.31.73,2.51,1.54,3.52.11.14.23.28.35.42.95,1.22,2,2.34,3.12,3.38,1.13,1.04,2.31,2.02,3.53,2.97s2.46,1.88,3.68,2.82c.61.47,1.22.95,1.82,1.43.6.49,1.19.98,1.76,1.49,1.2,1.05,2.33,2.18,3.4,3.36,2.13,2.37,4.01,4.98,5.58,7.77.79,1.39,1.5,2.83,2.14,4.31s1.2,2.98,1.68,4.52c.96,3.07,1.6,6.25,1.88,9.45.14,1.6.2,3.22.17,4.83-.08,3.42-.57,6.79-.84,10.17,0,.1-.02.2-.02.31-.1,1.33-.17,2.65-.15,3.98v.04c0,.69.03,1.39.08,2.08.04.45.08.9.13,1.34.11.89.26,1.78.43,2.66.27,1.32.62,2.63,1.02,3.93.81,2.59,1.85,5.14,2.98,7.64.75,1.67,1.53,3.31,2.31,4.94.2.41.4.83.6,1.25.39.85.76,1.73,1.04,2.63.07.22.14.44.2.67.12.44.21.89.27,1.34.04.23.06.46.07.68.03.43.02.86-.02,1.28-.03.27-.08.54-.14.8-.14.58-.35,1.13-.67,1.67-.02.04-.05.07-.07.11-.12.22-.26.44-.41.63,4.02,5.2,11.94,9.99,19.98,12.29,3.31.95,6.64,1.46,9.73,1.42.48,0,.97-.04,1.44-.07.74-.06,1.47-.16,2.18-.29.16-.03.32-.07.48-.1.38-.08.74-.17,1.1-.28,1.08-.31,2.1-.73,3.03-1.25.35-.2.68-.41,1.01-.64.55-.4,1.1-.81,1.64-1.24.12-.1.24-.19.35-.29.39-.31.76-.64,1.14-.96.75-.64,1.5-1.3,2.24-1.94.88-.76,1.77-1.49,2.68-2.17.42-.31.85-.61,1.29-.89.51-.33,1.02-.64,1.54-.91.33-.17.66-.33,1-.47.68-.29,1.38-.53,2.1-.7.36-.08.73-.16,1.11-.2.86-.1,1.72-.1,2.56-.01,3.12.32,6.16,1.76,9.08,3.26.53.28,1.06.55,1.59.82,1.44.72,2.88,1.41,4.36,2,.49.2.99.38,1.49.56.67.23,1.34.44,2.02.62,1.6.43,3.24.7,4.95.75.29.01.57.01.86,0,.29-.01.57-.02.86-.05.85-.07,1.7-.23,2.51-.45.82-.22,1.6-.52,2.35-.89s1.45-.81,2.1-1.32c.64-.51,1.23-1.09,1.75-1.74.34-.43.65-.89.92-1.39.6-1.09,1.04-2.35,1.62-3.49.14-.28.3-.56.46-.83.33-.53.71-1.01,1.19-1.41.24-.2.49-.38.78-.53.53-.25,1.08-.37,1.65-.39.3-.01.61,0,.93.04,2.19.23,4.54,1.43,6.74,1.04.51-.08.98-.26,1.43-.47,1.7-.83,2.97-2.53,4.01-4.22.12-.2.25-.41.37-.61.38-.67.75-1.34,1.11-2.02,2.15-4.09,3.85-8.39,5.17-12.85.22-.74.43-1.49.63-2.24.23-.86.44-1.72.64-2.59.1-.47.2-.95.3-1.43.39-1.93.74-3.88,1.15-5.82.31-1.45.65-2.89,1.06-4.29.27-.94.57-1.85.91-2.74,1.02-2.68,2.4-5.14,4.42-7.17.49-.49,1.01-.95,1.54-1.39,1.34-1.09,2.81-2.01,4.29-2.92.59-.36,1.19-.72,1.77-1.09.95-.59,1.89-1.2,2.78-1.86.43-.32.85-.65,1.26-1,.3-.26.6-.53.89-.8.24-.24.48-.49.71-.74.31-.35.59-.73.86-1.1.22-.31.43-.63.63-.96.79-1.3,1.41-2.71,1.89-4.19.38-1.15.67-2.33.92-3.53.11-.54.21-1.09.3-1.63.27-1.64.48-3.28.67-4.89.04-.43.07-.85.1-1.27.06-.85.11-1.69.12-2.53.01-.89-.03-1.78-.13-2.66-.14-1.18-.41-2.33-.9-3.46-.43-.94-1.01-1.8-1.67-2.6-.88-1.07-1.91-2.06-2.94-3.03-.26-.25-.51-.49-.77-.73-.51-.49-1.01-.98-1.48-1.48-.18-.19-.35-.38-.52-.58-1.18-1.36-2.12-2.83-2.47-4.61-.12-.58-.16-1.15-.14-1.72.04-.85.21-1.69.52-2.49.2-.53.46-1.06.76-1.56.15-.25.32-.5.49-.74.86-1.2,1.99-2.26,3.26-3.1.39-.26.79-.49,1.2-.7.4-.21.8-.4,1.21-.56.99-.39,2-.67,3.02-.87.21-.04.42-.09.64-.13,1.08-.19,2.16-.29,3.26-.35.59-.03,1.19-.05,1.78-.05,1.78-.02,3.57.04,5.34.04,2.07,0,4.19-.08,6.24-.4.29-.05.58-.1.87-.16.58-.11,1.15-.25,1.71-.41.28-.08.56-.17.83-.26,1.37-.47,2.67-1.13,3.85-2.02,1.04-.82,1.93-1.78,2.68-2.84.56-.8,1.05-1.66,1.47-2.55.28-.6.54-1.22.76-1.85s.43-1.27.6-1.92c.45-1.63.74-3.31.96-4.96.3-2.24.51-4.5.58-6.76.11-3.38-.05-6.77-.6-10.08h0Z"/>
  </a>
  <a xlink:href="https://www.welldonedrill.energy/be-fr/references/nos-references-a-anvers/">
    <path class="st1" d="M689.99,497.58c-.18-1.12-.54-2.28-1-3.48-.1-.27-.21-.54-.32-.8-.16-.4-.34-.82-.52-1.23s-.35-.83-.54-1.26c-.36-.85-.72-1.72-1.06-2.61-.15-.39-.29-.8-.42-1.2-.28-.81-.52-1.63-.71-2.47-.14-.63-.26-1.27-.34-1.91-.08-.65-.12-1.31-.11-1.97.02-3.01.98-6.21,3.63-9.63-2.68-1.06-5.54-2.58-8.61-4.67-5.41-3.37-9.2-7.8-14.21-12.52-2.97-2.82-6.09-5.79-8.12-9.41-5.69-7.94-5.55-39.29-20.3-32.3-10.43,6.32-17.87,16.15-31.81,14.13-17.46-2.42-6.51-6.59-8.81-16.28-8.53-15.34-25.18,3.23-35.47,7.67-10.69,5.52-17.19-1.88-25.45-7-7.17-4.17-17.32-1.34-21.39,5.79-3.66,6.19-1.36,14.4-4.47,20.73-3.93,5.04-10.47,3.23-17.22,3.06-5.27-.14-10.34,1.97-13.96,5.77l-4.15,4.36c-.36.42-.71.83-1.08,1.25.69.52,1.42,1.05,2.18,1.6.39.28.78.57,1.18.86.54.4,1.1.8,1.67,1.21,1.45,1.05,2.96,2.15,4.5,3.29.77.57,1.55,1.15,2.33,1.75.39.3.78.59,1.17.9,1.56,1.2,3.13,2.44,4.66,3.71,4.96,4.13,9.54,8.59,12.42,13.1.66,1.04,1.24,2.09,1.71,3.14.6,1.35,1.11,2.72,1.54,4.12.14.44.27.89.39,1.33.14.53.27,1.06.4,1.59.14.64.27,1.28.39,1.92.53,2.92.76,5.91.74,8.91,0,.59-.02,1.17-.04,1.76-.08,2.21-.28,4.42-.58,6.61-.33,2.62-.92,5.31-1.92,7.75-.13.3-.26.61-.4.9-.22.47-.47.92-.73,1.36-.9,1.52-2.02,2.88-3.44,3.97-1.78,1.33-3.82,2.12-5.98,2.58-.72.15-1.45.27-2.19.37-.29.04-.59.07-.89.1-1.49.14-3,.18-4.48.18-1.18,0-2.37-.02-3.57-.03h-1.84c-2.24.03-4.47.2-6.62.75-.3.08-.62.17-.92.26-.38.12-.76.23-1.13.37-.41.16-.82.35-1.21.56-.41.21-.81.44-1.2.69-1.27.83-2.4,1.88-3.27,3.07-.17.24-.33.48-.49.73-.3.49-.56,1.01-.76,1.54-.3.8-.48,1.62-.52,2.47-.02.57.02,1.14.14,1.71.54,2.69,2.44,4.67,4.48,6.61.26.24.51.48.77.72,1.81,1.69,3.62,3.41,4.62,5.58,2.65-.44,5.43-.87,8.3-1.28.96-.14,1.92-.27,2.91-.4,3.13-.42,6.35-.8,9.65-1.15,17.74-1.84,37.28-2.4,52.97.57,1.05.2,2.08.41,3.09.64,5.49,1.25,10.93,2.93,16.38,4.49.78.22,1.56.44,2.34.66,1.03.28,2.07.57,3.1.84.81.21,1.62.41,2.43.61,4.87,1.17,9.76,2.02,14.74,2.16,3,.07,5.99-.12,8.95-.55,1.48-.21,2.95-.49,4.41-.82,1.46-.33,2.9-.71,4.33-1.15s2.85-.93,4.25-1.47c2.8-1.08,5.54-2.36,8.19-3.82,1.33-.73,2.63-1.5,3.91-2.31,2.16-1.36,4.24-2.83,6.24-4.41s3.92-3.24,5.75-5c.65-.61,1.28-1.23,1.92-1.85.96-.93,1.92-1.86,2.95-2.72.68-.57,1.38-1.11,2.12-1.6.37-.24.75-.48,1.14-.7.99-.55,2.02-1,3.07-1.37.35-.12.71-.24,1.07-.35.71-.22,1.43-.4,2.16-.58,1.09-.26,2.2-.48,3.31-.69,1.57-.3,3.14-.6,4.68-.98.99-.24,1.97-.52,2.92-.87,2.17-.77,4.2-1.82,6.15-3.06.6-.38,1.19-.78,1.78-1.2.71-.51,1.4-1.03,2.08-1.58,1.37-1.09,2.7-2.25,4.01-3.43.63-.58,1.26-1.16,1.89-1.74.04-.04.08-.07.12-.11.3-.29.61-.57.91-.86.51-.47,1.02-.95,1.53-1.44.38-.37.76-.74,1.13-1.12.24-.24.48-.49.72-.74,1.09-1.16,2.12-2.38,3.01-3.65.2-.29.39-.57.57-.86,1.09-1.74,1.9-3.61,2.25-5.63.08-.47.1-.95.08-1.44-.01-.36-.05-.73-.11-1.11h-.07Z"/>
  </a>
  <a xlink:href="https://www.welldonedrill.energy/be-fr/references/nos-references-au-limbourg/">
    <path class="st1" d="M775.38,499.45c13.88,5.65,30.76,7.4,23.68,26.66-3.95,9.55-8.16,19.92-11.29,30.29-1.77,5.92-2.31,12.11-4.36,17.91-2.72,9.15-9.39,17.1-13.34,25.71-3.04,9.63-1.4,23.81,6.46,31l-.22.2c-21.67,13.68-57.93,27.51-83.41,30.72-9.12,1.21-18.64,1.75-27.08-2.02s-14.97-12.79-12.93-21.67c1.23-4.84,4.63-8.88,5.72-13.73,1.22-5.92-1.09-12.38,1.22-18.04,2.17-4.98,7.62-7.94,11.02-12.25,6.4-8.08,5.31-19.65,2.45-29.48-.68-2.56-1.5-5.12-3.68-6.59-2.86-2.02-6.67-1.21-10.07-.54-10.48,2.02-28.32,3.64-33.28-10.65,4.33-2.73,8.38-5.9,12.05-9.41,2.59-2.42,5.04-5.12,8.17-6.87,5.31-2.96,11.7-2.83,17.28-4.85,6.53-2.29,11.84-7.13,17.02-11.98,4.09-3.77,8.3-8.08,9.26-13.46,1.23-7.54-10.9-16.93-1.42-29.11,17.27,6.86,27.65-4.65,45.65-1.85,16.47,6.6,13.34,20.6,41.1,30.02h0Z"/>
  </a>
  <a xlink:href="province-22.html">
    <path class="st2" d="M626.26,927.38c.69-.85,1.46-1.58,2.28-2.28"/>
  </a>
  <a xlink:href="https://www.welldonedrill.energy/be-fr/references/nos-references-au-luxembourg/">
    <path class="st1" d="M840.63,787.5c0-2.25-.28-4.43-1.03-6.56-.91-2.59-2.4-4.94-4.27-6.91-3.13-3.29-7.36-5.51-11.91-5.93-7.27-.68-14.68,2.97-18.46,9.19-3.1,5.01-3.91,11.63-8.62,15.28-4.59,3.52-11.72,2.57-16.17-1.08-.28-.23-.55-.48-.8-.73-3.91-3.78-5.96-9.23-6.46-14.68-.4-3.39-.27-6.77-1.35-9.87-.71-1.86-1.83-3.46-3.19-4.87-3.01-3.09-7.28-5.18-11.36-6.76-10.11-3.92-20.75-6.21-31.39-8.51-4.86-1.09-10.1-2.03-14.42.41-2.88,1.64-4.73,4.5-5.89,7.64-.02.04-.03.08-.05.12-.23.61-.43,1.23-.6,1.86-.18.62-.32,1.25-.46,1.87-.49,2.32-.77,4.71-1.12,7.1-.33,2.21-.73,4.41-1.44,6.56-.89,2.42-2.18,4.64-3.7,6.73-1.51,2.09-3.25,4.05-5.02,5.97-.51.55-1.02,1.09-1.52,1.63-.32.34-.64.68-.96,1.02-.64.68-1.28,1.36-1.95,2.04-.98,1.02-1.99,2.02-3.02,3-.34.32-.69.65-1.03.97-.7.64-1.41,1.25-2.14,1.86-1.09.91-2.21,1.76-3.37,2.55-.78.53-1.57,1.02-2.39,1.49s-1.65.9-2.51,1.28c-1.34.67-2.69,1.22-3.63,2.3-.61.82-.84,1.78-.86,2.77h0c-.01.35.01.69.05,1.01.08,2.16.6,4.22,1.43,6.18.16.39.34.79.53,1.18.26.53.55,1.04.84,1.56.36.61.73,1.21,1.14,1.8.24.37.5.73.76,1.08,1.57,2.12,3.41,4.1,5.28,5.92.57.53,1.14,1.09,1.67,1.68.15.16.29.32.43.48.39.46.76.93,1.08,1.43.36.55.66,1.14.89,1.74.3.84.46,1.71.38,2.66-.2,1.57-1.03,2.85-2.04,4.07-.39.46-.79.91-1.19,1.34-.61.65-1.22,1.29-1.85,1.94-.64.65-1.27,1.28-1.93,1.91-.97.94-1.99,1.84-3.04,2.67-3.15,2.5-6.62,4.34-10.56,4.57-1.39.07-2.78-.05-4.17-.3-.92-.16-1.84-.37-2.76-.6-.59-.14-1.17-.3-1.76-.46-.8-.21-1.58-.44-2.37-.64-.91-.23-1.82-.45-2.71-.62-.46-.09-.9-.16-1.35-.23-.89-.12-1.78-.17-2.67-.14-.89.03-1.75.14-2.62.38-.44.12-.87.26-1.3.44-.57.23-1.11.52-1.62.84s-.99.69-1.44,1.09c-.46.39-.87.82-1.28,1.28-.4.46-.78.95-1.14,1.45-.18.25-.36.51-.53.78-.3.46-.58.93-.85,1.41-.82,1.45-1.52,2.98-2.18,4.5-.86,1.88-1.72,3.8-2.49,5.74-.25.66-.5,1.31-.73,1.97s-.46,1.32-.65,1.99c-.41,1.33-.73,2.68-.98,4.05-.12.68-.21,1.37-.28,2.07-.21,2.08-.08,4.23.39,6.29.1.45.23.9.36,1.34.14.43.29.85.45,1.27.11.28.23.55.35.82s.26.55.4.81c.29.54.6,1.05.95,1.54.18.24.36.48.55.72.43.52.9,1.02,1.41,1.46.26.23.53.43.8.64.59.44,1.23.84,1.9,1.2.66.37,1.37.7,2.08,1.02,2.47,1.14,5.1,2.11,7.08,3.59.85.64,1.57,1.36,2.13,2.23.36.59.64,1.23.83,1.96.34,1.18.25,2.42.01,3.64-.1.48-.21.98-.35,1.45-.06.24-.14.48-.2.72-.43,1.34-.96,2.65-1.55,3.92-.3.64-.62,1.27-.95,1.89-.33.6-.67,1.18-1.03,1.77-.76,1.22-1.59,2.39-2.49,3.51-.9,1.11-1.87,2.16-2.9,3.14-.69.66-1.4,1.28-2.15,1.87-1.12.91-2.3,1.75-3.49,2.59-.79.57-1.57,1.12-2.34,1.71-1.14.88-2.24,1.82-3.2,2.88-.48.53-.83,1.38-1.07,2.43-.08.35-.16.73-.21,1.12-.03.2-.05.39-.07.6-.05.41-.08.84-.1,1.27-.01.23-.02.45-.02.67-.01.39-.01.79-.01,1.19.02,1.52.14,3.09.34,4.57.12.9.26,1.75.43,2.55.07.35.15.69.23,1.02.11.43.23.84.35,1.21.12.35.24.67.37.96.05.12.11.23.16.34.04.07.07.12.09.17,5.38,1.48,11.43,3.98,17.84,9.46,6.6,5.27,13.61,11.48,20.74,14.74,8.63,4.19,19,6.21,26,12.84,4.59,4.33,6.88,9.87,11.59,13.79,4.85,4.34,12.54,8.79,16.31,15.01,1.48,2.3,2.83,4.87,3.91,7.17,5.25,13.38,17.65,13.38,29.77,8.65,9.57-2.43,18.05-5.28,28.15-6.76,4.85-.55,10.37-1.35,14.55-3.51,12.13-5.95,16.04-19.88,15.63-32.45-1.07-11.62-8.89-22.3-15.76-31.77-12.26-15-12.39-35.28-6.73-53,3.91-10.54,11.18-20.14,15.36-31.09,2.15-5.41,4.44-10.82,7.68-15.82,6.46-11.09,13.78-24.87,27.93-25.95-1.64-4.91-2.3-10.39-2.3-14.61,0-9.53,2.88-17.49,2.88-24.66v-.02l.02-.06Z"/>
  </a>
  <a xlink:href="province-24.html">
    <path class="st2" d="M676.44,799.67c.78-.71,1.54-1.47,2.28-2.28-.74.81-1.5,1.58-2.28,2.28Z"/>
  </a>
  <a xlink:href="province-25.html">
    <path class="st2" d="M655.91,847.57c.76.44,1.52.83,2.28,1.14"/>
  </a>
  <a xlink:href="province-26.html">
    <path class="st2" d="M625.12,942.21v-6.84,6.84Z"/>
  </a>
  <a xlink:href="province-27.html">
    <path class="st2" d="M706.08,755.2c-.43.37-.81.76-1.14,1.14.33-.38.71-.76,1.14-1.14Z"/>
  </a>
  <a xlink:href="province-28.html">
    <path class="st2" d="M682.14,837.3c1.13-1.36,2.06-2.8,2.28-4.56-.22,1.76-1.15,3.21-2.28,4.56Z"/>
  </a>
  <a xlink:href="https://www.welldonedrill.energy/be-fr/references/nos-references-en-brabant-wallon/">
    <path class="st1" d="M629.95,645.75c-.71-2.44-1.89-4.8-3.41-6.84-.22-.29-.45-.58-.68-.86-.93-1.12-1.98-2.12-3.11-2.98-2.64-2-5.78-3.16-9.16-2.99-.28.02-.55.04-.83.08-.82.1-1.64.28-2.45.5-.89.24-1.77.54-2.64.87-.39.15-.78.3-1.16.45-.77.31-1.54.63-2.31.96-.62.26-1.24.5-1.87.74-2.46.93-4.94,1.62-7.52,1.4-.25-.02-.48-.05-.72-.1-1.68-.26-3.27-.89-4.82-1.67-.76-.38-1.51-.8-2.26-1.24-.5-.29-1-.58-1.49-.87-1-.59-1.99-1.16-3-1.67-1.39-.67-2.83-1.23-4.32-1.68-.77-.23-1.56-.44-2.36-.63-2.39-.56-4.85-.9-7.31-1.14-1.43-.14-2.85-.25-4.27-.34-2.02-.15-4.07-.27-6.1-.26-.67,0-1.35.02-2.02.07-.67.04-1.34.1-2.01.17-.82.1-1.62.24-2.43.41-1.15.24-2.29.54-3.4.96-.79.29-1.56.62-2.32.99-.48.23-.95.49-1.41.75-.47.27-.94.55-1.4.84-.23.14-.45.29-.68.44-.76.51-1.52,1.06-2.26,1.63-2.21,1.7-4.33,3.58-6.46,5.37-.65.54-1.3,1.09-1.96,1.61-5,3.99-10.78,7.25-16.88,9.22-.76.24-1.53.48-2.3.68-.91.24-1.83.45-2.75.63-1.42.29-2.85.51-4.28.64-.79.07-1.58.12-2.37.14-2.37.07-4.74-.08-7.1-.49-2.33-.41-4.63-1.06-6.91-1.77-.76-.24-1.52-.48-2.28-.72-3.04-.96-6.08-1.91-9.2-2.39-3.85-.66-8.24-.13-12.61,1.17-2.18.65-4.36,1.5-6.46,2.5-1.4.66-2.77,1.39-4.08,2.16-1.31.78-2.57,1.6-3.76,2.46-1.77,1.29-3.38,2.66-4.75,4.05.28.19.55.39.8.6.26.22.5.44.72.68.45.47.83.99,1.14,1.54.6,1.1.86,2.34.61,3.65-.1.37-.24.73-.38,1.08-.07.17-.15.35-.23.51-.24.54-.48,1.08-.62,1.64-.08.31-.13.63-.13.96-.1,1.22.35,2.31,1.12,3.19.39.44.85.84,1.37,1.18.91.59,1.98,1,3.06,1.2.36.07.72.11,1.07.12,1.62.07,3.24-.17,4.86-.38.81-.1,1.62-.2,2.44-.24.39-.02.78-.03,1.17-.02.39,0,.78.04,1.18.08h.08c.26.04.52.08.78.13s.51.12.77.19c.51.15,1,.33,1.48.56.24.11.48.23.71.36.7.38,1.35.84,1.95,1.36,1.61,1.39,2.82,3.21,3.36,5.24.2.75.34,1.52.51,2.29.17.77.38,1.51.71,2.19.12.24.25.47.39.69.14.22.3.43.48.63,1.03,1.22,2.47,2.13,3.99,2.74,1.62.61,3.31.95,5.01,1.18,1.13.15,2.27.25,3.42.34,1.14.09,2.28.17,3.41.3.57.06,1.13.13,1.68.22,2.03.3,4.01.8,5.95,1.43.97.32,1.93.66,2.88,1.03.48.18.95.38,1.42.58.8.33,1.59.69,2.38,1.05.62.28,1.22.56,1.83.85.62.29,1.23.59,1.84.89,2.15,1.05,4.28,2.12,6.42,3.1,2.15,1.01,4.4,1.97,6.69,2.79.76.27,1.52.53,2.29.76.71.21,1.42.41,2.14.59.24.06.47.11.71.17.8.19,1.6.34,2.41.47,1.09.17,2.18.29,3.27.34.98.04,1.96.02,2.94-.05.08,0,.15-.01.23-.02.95-.08,1.9-.22,2.85-.43.47-.06,3.01-.09,5.81-.07.4,0,.8.01,1.21.02.41,0,.81.02,1.21.03.2,0,.4.01.6.02.79.02,1.54.06,2.23.1.34.02.66.04.97.07.15.01.29.02.43.04.82.08,1.41.18,1.63.31.29-2.46,1.07-4.81,2.51-6.8.05-.08.11-.16.16-.23.41-.53.85-1,1.32-1.45.47-.44.98-.85,1.5-1.21,1.06-.74,2.22-1.33,3.44-1.81.3-.12.61-.23.93-.33,2.2-.73,4.55-1.11,6.85-1.29,3.96-.3,7.91.08,11.86,0,1.32-.02,2.63-.1,3.95-.27.86-.12,1.72-.28,2.57-.47.95-.21,1.89-.48,2.82-.79,2.78-.93,5.4-2.26,7.78-3.97,1.06-.76,2.06-1.59,3.01-2.49.63-.6,1.23-1.23,1.81-1.89.71-.81,1.38-1.66,2.02-2.52,1.94-2.59,3.69-5.33,5.81-7.77.16-.18.33-.36.5-.55,1.27-1.35,2.74-2.55,4.34-3.44.53-.3,1.08-.56,1.64-.78.49-.2.99-.36,1.5-.48,1.01-.25,2.05-.36,3.1-.3.94.05,1.84.25,2.7.56.22.08.44.17.66.26.33.14.64.3.96.48s.63.36.93.57c.22.16.44.31.66.48.15-.95.32-1.94.49-2.95.17-1.02.35-2.07.52-3.13.6-3.74,1.14-7.71,1.16-11.47.02-2.68-.23-5.24-.91-7.53l.03.02v.02Z"/>
  </a>
  <a xlink:href="province-30.html">
    <g>
      <g class="st3">
        <a xlink:href="https://www.welldonedrill.energy/be-fr/references/nos-references-en-brabant-flamand/">
          <path class="st0" d="M673.33,564.79c2.84,9.88,3.93,21.53-2.43,29.65-3.39,4.33-8.81,7.3-10.97,12.32-2.3,5.69,0,12.18-1.21,18.14-1.09,4.88-4.47,8.94-5.69,13.81-1.64,7.19,2.25,14.45,8.19,19-5.96-3.24-24.47-4.92-31.11-5.86h-.04c-.07-2.05-.34-4.03-.87-5.82-2.16-7.45-8.67-14.08-16.39-13.68-6.49.41-12.32,5.55-18.82,5.01-4.46-.41-8.26-3.51-12.32-5.54-5.55-2.71-12.06-3.39-18.28-3.79-5.41-.41-10.96-.55-15.98,1.35-6.36,2.3-11.23,7.45-16.52,11.65-10.02,7.99-23.15,13-35.74,10.83-6.23-1.09-12.18-3.93-18.42-4.88-10.29-1.76-24.4,4.92-31.7,12.36-1.37-.91-2.98-1.5-4.57-1.65-4.19-.41-8.39,1.21-12.59,1.62-5.01.55-10.02-.68-14.9-1.89-2.16-.55-4.33-1.09-5.96-2.58s-.5-10.36.86-12.12c1.61.42,3.25.7,4.96.75,4.6.14,9.21-1.89,11.38-5.82,1.21-2.17,1.76-5.01,4.06-6.24,2.84-1.35,6.23,1.22,9.35.68,2.71-.41,4.46-2.98,5.82-5.28,3.51-6.09,5.96-12.72,7.58-19.63,1.62-7.58,2.44-15.98,7.85-21.39,3.92-3.93,9.61-5.69,13.27-9.75,3.79-4.33,4.6-10.56,5.28-16.25.27-3.39.54-6.77-.82-9.88,22.61-3.8,54.43-6.77,76.9-1.63,13,2.98,25.72,8.4,38.99,8.81,12.01.29,23.81-3.66,34.04-10.17,4.93,14.38,22.69,12.74,33.11,10.71,3.39-.68,7.18-1.49,10.02.54,2.16,1.49,2.98,4.06,3.66,6.64h0v-.02ZM529.43,623.96c.95-3.25-.14-6.78-1.36-9.88-1.35-3.66-2.71-7.32-5.01-10.43-6.36-8.53-20.17-14.22-30.6-11.78l-.14.14c-4.33,1.09-8.53,3.93-10.29,7.99-1.21,3.12-1.21,6.51-.54,9.75.67,3.93,2.16,7.72,4.73,10.57,2.58,2.84,6.64,4.73,10.56,4.2,2.43-.41,5.28-1.63,7.3-.14,2.16,1.63,1.63,5.01,3.25,7.17,2.03,2.58,5.96,2.03,9.21,1.22,5.28-1.36,11.23-3.52,12.86-8.8h.03Z"/>
        </a>
      </g>
      <a xlink:href="https://www.welldonedrill.energy/be-fr/references/nos-references-au-hainaut/">
        <path class="st1" d="M557.74,733.73c-.07-1.04-.18-2.08-.36-3.12-.31-1.69-.74-3.34-1.21-4.97-.78-2.71-1.67-5.38-2.31-8.08-.15-.62-.28-1.24-.4-1.87s-.22-1.26-.3-1.91c-.12-.96-.18-1.95-.19-2.92,0-.32-.02-.65-.02-.98.02-.65.06-1.3.13-1.94-.22-.13-.8-.23-1.63-.31-.14-.01-.28-.02-.43-.04-.3-.02-.62-.05-.97-.07-.69-.04-1.44-.07-2.23-.1-.2,0-.39-.01-.6-.02-.4-.01-.81-.02-1.21-.03-.41,0-.81-.01-1.21-.02-2.8-.04-5.34,0-5.81.07-1,.22-2,.36-3.01.45-1,.08-2.01.1-3.02.05-1-.04-2.01-.14-3.01-.29-1-.15-2-.35-2.99-.58-.99-.24-1.98-.51-2.96-.83-.49-.16-.98-.32-1.46-.48-.61-.21-1.21-.44-1.81-.67-1.8-.7-3.57-1.47-5.27-2.27-2.13-.99-4.27-2.06-6.42-3.11-.61-.3-1.22-.59-1.84-.89-.61-.29-1.22-.57-1.83-.85-.79-.36-1.58-.71-2.38-1.05-.47-.2-.95-.39-1.42-.58-.96-.37-1.91-.73-2.88-1.04-1.94-.63-3.92-1.13-5.95-1.44-.56-.08-1.12-.16-1.68-.22-1.13-.12-2.27-.2-3.41-.3-1.14-.09-2.29-.19-3.42-.34-1.7-.23-3.38-.57-5.01-1.18-.51-.2-1-.44-1.48-.71-.72-.41-1.38-.89-1.96-1.45-.19-.19-.38-.38-.54-.59-.17-.2-.33-.41-.48-.64-.14-.22-.28-.45-.39-.69-.34-.68-.54-1.43-.71-2.19-.17-.77-.3-1.55-.51-2.29-.14-.51-.31-1.01-.52-1.49-.64-1.44-1.63-2.73-2.83-3.77-.4-.35-.82-.67-1.27-.96-.45-.29-.91-.55-1.39-.77-.48-.22-.98-.41-1.48-.56-.25-.07-.51-.14-.77-.19-.26-.05-.52-.1-.78-.13h-.08c-.39-.05-.78-.07-1.18-.08-.39,0-.78,0-1.18.02-.81.04-1.62.14-2.44.24-1.62.2-3.24.44-4.87.38-.36-.01-.72-.05-1.07-.12-1.08-.2-2.15-.61-3.06-1.2-.52-.34-.99-.73-1.37-1.18-.78-.89-1.22-1.98-1.12-3.2,0-1.12.54-2.08.97-3.13.14-.35.28-.7.38-1.08.07-.33.1-.65.1-.97,0-.64-.11-1.25-.32-1.83-.41-1.15-1.2-2.18-2.2-3.03-.27-.23-.56-.45-.85-.65-.34-.23-.7-.44-1.06-.62-.8-.4-1.65-.7-2.51-.88-.33-.07-.66-.13-.99-.16-2.75-.27-5.5.34-8.25.9-.39.08-.79.16-1.18.24-1.04.2-2.1.38-3.14.48-5.01.55-10.01-.68-14.88-1.89-1.08-.28-2.16-.54-3.18-.93-.51-.2-1-.42-1.46-.69s-.9-.58-1.31-.96c-.24-.22-.42-.62-.54-1.13-.08-.31-.14-.66-.18-1.05,0-.05-.01-.1-.02-.15-.05-.52-.07-1.1-.05-1.71.04-2.46.52-5.39,1.14-7.07.09-.24.18-.45.27-.63.08-.16.17-.3.25-.41-1.36-.37-2.7-.84-4.01-1.39-1.31-.54-2.61-1.16-3.88-1.8-1.97-1.02-4-2.09-6.07-2.89-.69-.27-1.39-.5-2.09-.7-.84-.23-1.68-.4-2.54-.49-.85-.09-1.71-.09-2.57.01-.38.05-.75.12-1.12.2-.73.17-1.43.41-2.11.7-.34.14-.67.31-1,.47-.53.28-1.04.58-1.55.91-.75.49-1.48,1.02-2.2,1.58-.6.47-1.2.97-1.78,1.48-.88.76-1.76,1.53-2.65,2.28-.89.75-1.8,1.48-2.74,2.14-1.57,1.1-3.4,1.83-5.43,2.23-.81.16-1.65.27-2.52.34-.43.03-.87.05-1.31.05-1.33.02-2.7-.06-4.09-.24-1.4-.17-2.81-.45-4.24-.8-.47-.12-.95-.25-1.42-.38-.95-.27-1.89-.58-2.83-.91-1.32-.47-2.62-1.01-3.89-1.59-5.09-2.34-9.65-5.52-12.59-8.92-.24-.28-.48-.57-.7-.86-1,1.31-2.5,2.13-4.12,2.92-1.77.87-3.6,1.62-5.46,2.28-1.86.65-3.77,1.19-5.7,1.62-1.93.43-3.89.75-5.85.95-1.64.17-3.29.25-4.94.25-.99,0-1.98-.01-2.97-.07-1.42-.08-2.84-.23-4.26-.44-.55-.08-1.1-.16-1.64-.26-.6-.11-1.23-.23-1.87-.35-.76-.14-1.56-.29-2.38-.44-1.25-.23-2.56-.47-3.9-.71-2.97-.52-6.12-1.02-9.28-1.38-6.3-.74-12.58-.95-17.32.27,9.31,9.62,13.66,23.71,17.3,36.54,3.25,15.33,4.73,38.53,23.4,42.06,7.3,1.08,17.32-1.09,23.8,0,3.66.68,7.16,2.04,11.5,4.07,18.12,7.74,22.58,15.74,25.01,35.15,1.09,6.51,2.03,15.6,7.17,18.45,6.35,1.9,11.09-3.8,19.07-4.48,11.22-.82,22.71,1.22,33.94.41,21.24-.54,22.45,10.98,36.38,20.49,2.84,1.9,7.3,2.85,8.11,6.66,1.22,9.49-5.27,19.4-5.95,28.36-1.21,10.85,11.09,18.86,8.26,29.59-1.09,5.57-3.79,10.58-5.82,15.87-6.64,16.55,13.25,19.54,25.83,20.89,9.46.84,19.44,2.91,29.23,2.33-.26-1.22-.54-2.52-.81-3.87-.25-1.21-.5-2.46-.75-3.74-1.76-8.97-3.48-19.43-3.91-27.74-.04-.72-.07-1.43-.08-2.11-.05-2.7-.07-5.42-.13-8.13-.05-1.81-.11-3.62-.23-5.42-.06-.9-.13-1.8-.23-2.7-.18-1.79-.42-3.57-.76-5.33-.17-.88-.36-1.77-.59-2.64-.23-.88-.48-1.75-.76-2.61-.43-1.29-.93-2.57-1.49-3.79-1.71-3.69-4.09-7.02-7.29-9.55-.24-.19-.48-.37-.73-.55-.33-.24-.67-.48-1.02-.72-.2-.14-.4-.28-.6-.42-.65-.45-1.31-.9-1.93-1.38-.35-.26-.68-.53-1-.8-.55-.47-1.06-.96-1.51-1.49-.3-.35-.58-.73-.82-1.12-.24-.39-.45-.81-.62-1.25-.1-.29-.19-.58-.25-.87-.2-.87-.23-1.77-.18-2.67.05-.91.2-1.82.37-2.74.11-.61.24-1.23.36-1.84.12-.62.23-1.23.33-1.85.09-.61.15-1.23.17-1.83,0-.23.01-.46,0-.68-.02-.68-.1-1.36-.27-2.03-.1-.38-.23-.76-.39-1.13-.11-.28-.24-.56-.38-.84-.19-.38-.4-.77-.62-1.15-.43-.76-.88-1.53-1.25-2.32-.12-.26-.24-.53-.34-.8-.78-2-.87-4.03-.44-5.97.05-.25.11-.49.18-.73.21-.72.49-1.43.83-2.12,1.48-2.99,4.12-5.62,7.23-7.45,1.67-.98,3.48-1.73,5.32-2.18,2.1-.51,4.21-.8,6.33-.97.53-.04,1.06-.08,1.59-.11.55-.03,1.1-.06,1.65-.08,1.05-.04,2.09-.07,3.14-.1,4.26-.1,8.52-.17,12.72-1.05,3.09-.64,6.03-1.78,8.74-3.33.9-.52,1.78-1.08,2.63-1.68.61-.44,1.21-.9,1.8-1.39.63-.51,1.24-1.04,1.83-1.6.38-.36.75-.72,1.12-1.1.42-.43.82-.88,1.22-1.33.78-.89,1.52-1.83,2.22-2.8.48-.68.95-1.37,1.39-2.08,1.1-1.79,2.05-3.68,2.82-5.63.24-.6.45-1.22.66-1.84.29-.88.55-1.76.76-2.65.13-.51.23-1.02.34-1.53.11-.58.2-1.15.28-1.73.13-.93.22-1.88.26-2.82v-.13c.04-1.03.03-2.07-.03-3.1l-.05.02h-.03Z"/>
      </a>
      <a xlink:href="https://www.welldonedrill.energy/be-fr/references/nos-references-a-liege/">
        <path class="st1" d="M629.56,652.47c6.65.94,25.23,2.59,31.21,5.82,1.46,1.11,3.04,2.05,4.69,2.79,8.42,3.78,17.93,3.23,27.03,2.01,25.54-3.26,61.89-17.24,83.48-31.03h.01c2.34,2.14,5.23,3.65,8.71,4.24,33.68,2.14,60.04-2.47,82.87,28.83,4.21,7.29,16.3,13.76,14.54,22.82-.81,6.21-7.05,15.39-4.06,22.68,1.09,2.57,3,4.32,5.31,5.8,21.06,10.79,23.64,11.6,25.96,36.17.96,8.37,4.91,18.76-1.89,25.38-6.38,5.94-17.38,11.35-23.76,19.19-4.75,5.94-9.77,12.16-12.61,18.78-2.44,5.94-4.47,15.25-12.63,14.45-4.75-.54-10.73-4.58-16.03-3.9-.38.03-.75.07-1.11.12l-.02-.12c-6.54-19.44,3.84-32.95-.38-44.83-2.46-6.88-8.98-12.15-16.31-12.81-7.33-.68-14.8,2.97-18.6,9.18-3.12,5-3.93,11.62-8.68,15.26-4.62,3.52-11.82,2.58-16.31-1.07-4.48-3.78-6.79-9.58-7.34-15.39-.41-3.38-.28-6.76-1.37-9.86-2.31-5.94-8.69-9.32-14.67-11.6-10.2-3.91-20.92-6.2-31.65-8.48-4.89-1.08-10.19-2.02-14.54.41-2.9,1.63-4.77,4.5-5.94,7.64-.02.03-.03.08-.05.12-1.48,3.56-9.25,11.67-12.87,10.47-1.09-.41-1.9-1.22-2.72-2.16-3.94-4.58-6.39-10.39-6.8-16.46-.41-7.29,1.22-16.34-4.9-20.39-2.04-1.34-4.49-1.75-6.93-2.29-16.3-3.64-30.03-16.59-34.79-32.38-1.36-4.6-2.05-9.58-4.09-13.91-1.12-2.38-2.82-4.67-4.93-6.3.92-5.71,2.4-12.9,2.13-19.21h.04-.02l.02.03Z"/>
      </a>
      <a xlink:href="https://www.welldonedrill.energy/be-fr/references/nos-references-a-namur/">
        <path class="st1" d="M705.78,755.4c-.05.1-.1.19-.16.29-.3.53-.68,1.1-1.13,1.71-.15.2-.31.41-.47.62-.05.07-.1.13-.15.19-.21.26-.43.52-.65.78-.04.05-.08.09-.12.14-.25.28-.5.56-.76.85-.16.17-.32.34-.49.52-.63.65-1.3,1.28-1.98,1.86-.21.18-.42.35-.63.52-.42.34-.84.65-1.26.94-.33.22-.65.43-.97.61-.32.18-.64.35-.95.49-.16.07-.31.13-.46.19-.9.34-1.72.44-2.4.22-.27-.1-.53-.23-.77-.38-.49-.3-.92-.68-1.33-1.11-.21-.21-.41-.44-.62-.68-.49-.58-.96-1.17-1.4-1.79-.44-.61-.86-1.24-1.26-1.89-1.04-1.7-1.88-3.51-2.55-5.39-.85-2.4-1.4-4.91-1.57-7.49-.2-3.61.1-7.65-.28-11.3-.05-.52-.12-1.04-.2-1.54-.13-.78-.3-1.55-.53-2.27-.68-2.18-1.85-4.06-3.86-5.39-.21-.14-.44-.28-.66-.4-1.58-.87-3.37-1.28-5.18-1.67-.36-.08-.72-.16-1.08-.23-1.53-.34-3.03-.77-4.51-1.27-.49-.17-.98-.34-1.47-.53-1.46-.55-2.88-1.18-4.28-1.88-.46-.23-.92-.47-1.38-.72-1.37-.74-2.7-1.56-3.99-2.43-.43-.29-.86-.59-1.28-.89-2.1-1.53-4.08-3.22-5.91-5.06-.73-.74-1.44-1.49-2.13-2.28-.68-.78-1.35-1.58-1.98-2.4-.64-.82-1.24-1.67-1.82-2.52-1.45-2.15-2.73-4.41-3.8-6.77-.43-.94-.83-1.9-1.19-2.87s-.69-1.95-.99-2.94c-.48-1.62-.87-3.29-1.27-4.96-.06-.26-.13-.52-.19-.78-.22-.89-.44-1.77-.67-2.66-.09-.33-.19-.66-.28-.99-.29-.99-.6-1.98-.97-2.93-.21-.56-.45-1.11-.7-1.66-.28-.6-.59-1.19-.94-1.77-.28-.46-.58-.9-.89-1.34-.28-.39-.58-.77-.89-1.14-.66-.77-1.4-1.48-2.19-2.1-.22-.17-.43-.33-.66-.48-.3-.21-.62-.4-.93-.57s-.64-.34-.96-.48c-.22-.1-.44-.18-.66-.26-.86-.31-1.77-.51-2.71-.56-1.05-.07-2.09.04-3.11.3-.51.13-1.01.29-1.5.48-.56.22-1.11.49-1.65.78-1.61.89-3.09,2.1-4.36,3.45-.17.18-.34.37-.5.55-2.13,2.45-3.89,5.2-5.84,7.78-.65.86-1.32,1.71-2.03,2.52-.58.66-1.18,1.29-1.82,1.89-.95.9-1.96,1.74-3.02,2.49-2.39,1.71-5.03,3.05-7.81,3.98-.93.31-1.87.58-2.83.79-.85.19-1.71.35-2.58.47-1.32.17-2.64.25-3.97.27-3.97.08-7.94-.31-11.91,0-2.31.18-4.68.56-6.88,1.29-.32.1-.62.22-.93.34-1.23.47-2.4,1.07-3.46,1.81-.53.37-1.04.77-1.51,1.22-.47.44-.92.93-1.32,1.46-.06.08-.11.15-.16.23-1.45,1.99-2.22,4.34-2.52,6.82-.11.97-.16,1.94-.14,2.92.02.98.09,1.96.21,2.92.08.64.19,1.28.3,1.91.32,1.7.77,3.37,1.26,5.04.95,3.25,2.05,6.48,2.68,9.88.18,1.04.3,2.07.36,3.12.07,1.03.07,2.07.03,3.1v.13c-.04.94-.13,1.88-.26,2.82-.02.14-.04.27-.06.41-.14.96-.33,1.91-.56,2.85-.22.89-.48,1.77-.77,2.65-.2.62-.42,1.23-.66,1.84-.77,1.95-1.72,3.84-2.83,5.63-.61.99-1.28,1.96-1.99,2.89-.52.68-1.06,1.35-1.63,1.99-1.05,1.21-2.19,2.34-3.4,3.38-.11.1-.23.19-.34.29-3.93,3.32-8.59,5.72-13.66,6.77-3.67.77-7.39.92-11.12,1.02-.53.01-1.07.02-1.6.04h-.08c-1.04.02-2.07.05-3.1.1-1.15.05-2.29.11-3.43.21-2.07.17-4.14.46-6.18.95-1.84.44-3.65,1.2-5.33,2.18-3.12,1.83-5.77,4.47-7.26,7.46-.34.69-.62,1.4-.83,2.12-.07.24-.13.48-.19.72-.43,1.95-.34,3.97.44,5.98.2.54.46,1.07.74,1.59.14.26.28.51.43.77.73,1.28,1.49,2.53,1.83,3.88.46,1.79.27,3.62-.06,5.47-.11.62-.24,1.23-.36,1.84-.13.62-.25,1.23-.34,1.84-.05.31-.09.61-.13.91-.18,1.52-.16,3.01.35,4.45.59,1.55,1.68,2.77,2.96,3.87.18.16.37.31.56.46.76.61,1.58,1.17,2.39,1.73.2.14.41.28.61.42.35.24.69.48,1.02.72.25.18.5.36.74.55.53.42,1.05.86,1.53,1.32,3.43,3.24,5.78,7.49,7.28,12.02.17.53.34,1.05.49,1.58.35,1.22.64,2.44.87,3.67.34,1.76.59,3.54.77,5.33.54,5.38.49,10.85.59,16.24.22,9.12,2.33,21.53,4.36,31.62.14.67.27,1.34.4,1.98.28,1.34.55,2.64.82,3.87,1.4-.08,2.8-.22,4.19-.43,13.7-2.85,30.52-8.14,40.03-18.18,6.91-8.28,7.87-19.41,13.84-28.36,4.75-7.47,14.92-18.87,24.02-15.2,8.81,6.38.95,18.05-1.36,26.19-2.58,8.14-5.97,16.7-4.61,25.38,1.63,11,9.23,20.63,9.77,32.3.68,6.92-1.77,15.19.95,21.44,3.53,6.64,10.89,6.11,20.31,8.69-.03-.05-.06-.11-.08-.17-.05-.11-.11-.22-.17-.35-.13-.29-.25-.61-.37-.97-.13-.37-.24-.78-.35-1.22-1.24-4.86-1.62-13.18.48-15.49.97-1.07,2.07-2.01,3.22-2.89.38-.29.78-.58,1.17-.86.67-.49,1.35-.96,2.03-1.45.91-.65,1.81-1.3,2.67-1.99,2.98-2.36,5.54-5.28,7.58-8.55.36-.58.71-1.17,1.03-1.77.34-.62.66-1.25.95-1.89.59-1.28,1.13-2.59,1.56-3.93.07-.24.14-.48.2-.72.13-.49.25-.97.35-1.46.25-1.23.33-2.47-.01-3.65-.18-.73-.47-1.38-.84-1.96-.55-.88-1.28-1.61-2.14-2.24-.39-.29-.81-.56-1.24-.82-3.05-1.8-7.03-2.89-9.89-5.02-2.43-1.77-4.06-4.38-4.95-7.28-.14-.44-.26-.89-.37-1.34-.47-2.06-.59-4.22-.38-6.31.07-.7.16-1.38.28-2.07.24-1.37.58-2.73.98-4.07.2-.67.42-1.34.65-2,.23-.66.48-1.32.74-1.97.77-1.96,1.64-3.88,2.5-5.77.67-1.51,1.38-3.06,2.2-4.51.27-.48.56-.96.86-1.43.51-.79,1.07-1.55,1.67-2.24.57-.65,1.19-1.23,1.86-1.76.12-.09.24-.18.36-.26.41-.3.85-.58,1.31-.82.27-.14.55-.27.84-.39.21-.09.43-.14.64-.22,1.09-.37,2.19-.57,3.31-.61.89-.03,1.78.03,2.68.15.45.06.9.13,1.35.22.9.17,1.82.39,2.73.63,1.48.38,2.98.82,4.48,1.19.67.16,1.33.31,2,.44.29.05.58.1.86.15.95.15,1.89.25,2.85.26.32,0,.64,0,.95-.02.33-.02.66-.05.98-.09.65-.08,1.28-.21,1.9-.37.31-.08.62-.17.93-.27,3.37-1.11,6.37-3.31,9.13-5.84.25-.23.5-.46.75-.7.66-.63,1.31-1.27,1.94-1.92.64-.65,1.25-1.3,1.86-1.94.29-.31.57-.62.85-.94,1.17-1.34,2.19-2.73,2.4-4.49.08-.95-.07-1.83-.38-2.67-.22-.61-.52-1.19-.89-1.74-.32-.5-.7-.97-1.09-1.43-.14-.16-.28-.32-.43-.48-.54-.59-1.12-1.15-1.69-1.68-1.88-1.83-3.73-3.81-5.31-5.94-1.51-2.03-2.78-4.2-3.62-6.49-.09-.23-.17-.47-.25-.71-.19-.59-.35-1.18-.49-1.79-.2-.93-.34-1.88-.37-2.85-.04-.34-.05-.68-.04-1.01h0c.02-1.01.25-1.98.86-2.79.95-1.08,2.31-1.63,3.65-2.31.86-.39,1.71-.82,2.53-1.29s1.62-.97,2.4-1.49c1.17-.79,2.3-1.65,3.4-2.56.73-.61,1.45-1.23,2.15-1.87.35-.32.7-.64,1.05-.97,1.04-.98,2.05-1.99,3.04-3.01.66-.68,1.32-1.36,1.96-2.04.32-.34.65-.68.97-1.02.51-.54,1.02-1.08,1.53-1.64,3.56-3.84,7-7.89,8.78-12.75.13-.4.24-.79.35-1.19,1.16-4.13,1.36-8.43,2.23-12.51.23-1.09.53-2.2.92-3.28.05-.15.09-.31.15-.46-.08.18-.17.39-.29.6v-.04l-.04.04Z"/>
      </a>
      <a xlink:href="https://www.welldonedrill.energy/be-fr/references/nos-references-en-flandre-occidentale/">
        <path class="st1" d="M334.33,630.33c-.02-.23-.04-.45-.07-.68-.07-.44-.16-.88-.28-1.33-.06-.22-.12-.44-.2-.66-.28-.88-.65-1.77-1.04-2.61-.2-.42-.4-.84-.61-1.25-.78-1.62-1.57-3.26-2.32-4.91-1.13-2.49-2.18-5.01-2.99-7.59-.41-1.29-.76-2.59-1.03-3.91-.18-.88-.33-1.76-.44-2.65-.05-.44-.1-.89-.13-1.34-.05-.69-.08-1.38-.08-2.07s0-1.38.04-2.06c.09-2.06.31-4.11.52-6.16.08-.73.15-1.47.22-2.21.12-1.32.22-2.65.25-3.98.04-1.6-.02-3.21-.17-4.8-.29-3.19-.93-6.35-1.89-9.39-.48-1.53-1.04-3.02-1.68-4.49-.64-1.47-1.36-2.89-2.15-4.28-1.58-2.77-3.46-5.37-5.61-7.72-1.07-1.17-2.22-2.3-3.42-3.34-.58-.51-1.17-1-1.77-1.48-.6-.48-1.21-.95-1.83-1.42-1.23-.94-2.47-1.85-3.7-2.8-1.22-.94-2.42-1.91-3.55-2.95-1.13-1.04-2.19-2.15-3.14-3.36-.12-.14-.23-.28-.35-.42-.35-.43-.68-.9-.95-1.39-.36-.66-.59-1.37-.59-2.11-.02-.22-.02-.43,0-.65.06-.86.36-1.69.76-2.48.3-.6.65-1.17,1.01-1.72,1.48-2.45,2.96-4.93,4.44-7.41,1.64-2.75,3.28-5.49,4.91-8.22.55-.91,1.1-1.83,1.64-2.74.46-.81.93-1.62,1.37-2.45.29-.55.56-1.1.79-1.67.11-.28.22-.57.31-.86.19-.58.32-1.17.38-1.78.27-1.89,0-3.92-.41-5.81l-4.75-38.24v-.02c-.43-1.1-.77-2.22-1.09-3.35-1.63-4.87-2.44-9.05-6.38-11.89-17.23-8.79-65.81,24.04-82.91,34.3-13.7,8.78-26.19,18.51-39.89,26.74-11,7.29-25.78,11.75-32.71,23.37-7.18,13.23,4.35,30.52,5.57,43.75,1.36,7.7,0,15.53.82,23.37,1.9,17.28,20.22,23.77,29.98,36.19,11.12,12.16,21.85,24.72,37.59,11.62,10.58-8.77,24.82-20.67,39.08-13.37,2.69,1.65,5.07,3.6,7.2,5.78h.01c2.37-.61,5.14-.86,8.1-.86h.04c1.47,0,2.98.05,4.52.16,1.55.1,3.13.26,4.72.44,1.58.18,3.16.4,4.72.63s3.09.49,4.58.74c1.35.23,2.66.47,3.91.7.82.15,1.62.3,2.38.44.65.12,1.27.23,1.88.35.55.1,1.1.18,1.65.26,1.42.21,2.84.35,4.27.43.66.04,1.33.06,1.98.07,1.98.03,3.97-.05,5.95-.26,2.63-.27,5.24-.75,7.8-1.41,1.92-.5,3.8-1.12,5.65-1.84.62-.24,1.22-.49,1.83-.76.61-.26,1.2-.54,1.8-.83.41-.2.8-.4,1.19-.61.38-.21.76-.42,1.11-.66.71-.46,1.34-1,1.83-1.65.18-.23.34-.48.48-.73.32-.53.54-1.08.68-1.66.07-.26.11-.53.14-.8.04-.42.05-.85.02-1.28v.02h.01Z"/>
      </a>
    </g>
  </a>
</svg>